<?xml version="1.0" encoding="UTF-8" standalone="no"?>
<!-- Created with Inkscape (http://www.inkscape.org/) -->

<svg
   xmlns:dc="http://purl.org/dc/elements/1.1/"
   xmlns:cc="http://creativecommons.org/ns#"
   xmlns:rdf="http://www.w3.org/1999/02/22-rdf-syntax-ns#"
   xmlns:svg="http://www.w3.org/2000/svg"
   xmlns="http://www.w3.org/2000/svg"
   xmlns:sodipodi="http://sodipodi.sourceforge.net/DTD/sodipodi-0.dtd"
   xmlns:inkscape="http://www.inkscape.org/namespaces/inkscape"
   width="64"
   height="64"
   id="svg2"
   version="1.1"
   inkscape:version="0.48.2 r9819"
   sodipodi:docname="boston.svg"
   inkscape:export-filename="/Developer/Workspace/Flash/BasicGame/src/data/boston.png"
   inkscape:export-xdpi="90"
   inkscape:export-ydpi="90">
  <defs
     id="defs4" />
  <sodipodi:namedview
     id="base"
     pagecolor="#ffffff"
     bordercolor="#666666"
     borderopacity="1.0"
     inkscape:pageopacity="0.0"
     inkscape:pageshadow="2"
     inkscape:zoom="13.484375"
     inkscape:cx="34.81253"
     inkscape:cy="31.880903"
     inkscape:document-units="px"
     inkscape:current-layer="layer1"
     showgrid="false"
     inkscape:window-width="1658"
     inkscape:window-height="1103"
     inkscape:window-x="0"
     inkscape:window-y="0"
     inkscape:window-maximized="0" />
  <metadata
     id="metadata7">
    <rdf:RDF>
      <cc:Work
         rdf:about="">
        <dc:format>image/svg+xml</dc:format>
        <dc:type
           rdf:resource="http://purl.org/dc/dcmitype/StillImage" />
        <dc:title></dc:title>
      </cc:Work>
    </rdf:RDF>
  </metadata>
  <g
     inkscape:label="Layer 1"
     inkscape:groupmode="layer"
     id="layer1"
     transform="translate(0,-988.36218)">
    <path
       style="fill:#333333;stroke:#000000;stroke-width:1px;stroke-linecap:butt;stroke-linejoin:miter;stroke-opacity:1"
       d="m 44.273465,57.028969 2.521437,-0.51912 C 49.439833,54.512138 49.477153,53.395633 52.505215,43.976825 54.01921,38.656977 56.368096,30.462936 54.433372,21.803013 53.902659,15.153801 56.14258,1.8796489 52.134415,2.0023174 48.853799,2.6494488 44.938245,11.117482 41.307068,15.79606 L 24.472769,15.425261 C 21.562505,9.5745569 18.490154,0.23896791 15.94438,2.2247972 13.648677,3.1348862 13.257926,16.369315 12.013905,21.135573 c -2.4225388,12.388792 -0.483884,14.915703 0.29664,21.432213 1.31394,5.072762 2.432516,11.247878 4.227115,13.422944 0.791038,0.696463 2.027036,1.085457 2.818075,0.815759 z"
       id="path3056"
       inkscape:connector-curvature="0"
       sodipodi:nodetypes="ccccccccccccc"
       transform="translate(0,988.36218)"
       inkscape:export-xdpi="90"
       inkscape:export-ydpi="90" />
    <path
       style="fill:#e6e6e6;stroke:#e6e6e6;stroke-width:1px;stroke-linecap:butt;stroke-linejoin:miter;stroke-opacity:1"
       d="m 19.355736,1045.2428 c 0.612648,-5.2874 -0.746137,-9.5891 2.002318,-15.9444 3.906716,-4.6111 5.791861,-3.7351 8.454229,-4.9687 0.345802,-5.2917 -0.113414,-15.4136 1.038238,-15.8702 l 2.447278,0 c 0.508964,1.2921 0.704603,10.4173 1.038238,16.0927 2.101198,1.2795 4.202395,1.042 6.303593,4.0788 1.9727,2.6409 2.029378,11.4131 3.040556,17.1309 -8.10815,3.488 -16.2163,3.31 -24.32445,-0.5191 z"
       id="path3066"
       inkscape:connector-curvature="0"
       sodipodi:nodetypes="ccccccccc" />
    <path
       style="fill:#808080;stroke:#808080;stroke-width:1px;stroke-linecap:butt;stroke-linejoin:miter;stroke-opacity:1"
       d="m 36.931634,1035.9728 c 3.124534,0.3423 2.625368,3.9803 3.337196,6.1552 -5.586713,2.0009 -11.395906,1.5634 -16.982619,0.2225 1.02749,-3.0847 0.441977,-6.1541 3.782155,-6.3777 z"
       id="path3045"
       inkscape:connector-curvature="0"
       sodipodi:nodetypes="ccccc" />
    <rect
       style="fill:#4d4d4d;stroke:#4d4d4d"
       id="rect3013"
       width="9.3636618"
       height="6.2668066"
       x="27.263674"
       y="1031.2021"
       rx="3.6154466"
       ry="2.0580885" />
    <path
       style="fill:none;stroke:#000000;stroke-width:1px;stroke-linecap:butt;stroke-linejoin:miter;stroke-opacity:1"
       d="m 34.651217,1035.843 c 0.406717,-0.178 0.718036,-0.2607 0.926999,-0.241 0.305508,-0.2061 0.668706,-1.5326 -0.22248,-2.2989 -3.430804,-1.2161 -4.622854,-1.0123 -6.952491,-0.037 -0.735773,0.4028 -0.852528,2.0853 -0.01854,2.2989 l 1.019698,0.5006 0,0"
       id="path3037"
       inkscape:connector-curvature="0"
       sodipodi:nodetypes="ccccccc" />
    <path
       style="fill:none;stroke:#000000;stroke-width:1px;stroke-linecap:butt;stroke-linejoin:miter;stroke-opacity:1"
       d="m 32.05562,1044.0006 -0.07416,-11.1054"
       id="path3039"
       inkscape:connector-curvature="0"
       sodipodi:nodetypes="cc" />
    <path
       style="fill:none;stroke:#000000;stroke-width:1px;stroke-linecap:butt;stroke-linejoin:miter;stroke-opacity:1"
       d="m 18.910777,1040.719 c 10.359157,4.3634 15.390981,5.1494 24.546929,-10e-5"
       id="path3041"
       inkscape:connector-curvature="0"
       sodipodi:nodetypes="cc" />
    <path
       sodipodi:nodetypes="ccc"
       inkscape:connector-curvature="0"
       id="path3040"
       d="m 26.117118,1018.3969 c -1.136437,5.1772 -7.320932,3.5239 -8.15759,0.5191 0.958861,-5.1973 6.964073,-6.3435 8.15759,-0.5191 z"
       style="fill:#ffffff;stroke:#000000;stroke-width:1px;stroke-linecap:butt;stroke-linejoin:miter;stroke-opacity:1" />
    <path
       transform="matrix(-0.83905439,0,0,0.94074931,58.642781,998.60953)"
       d="m 45.460022,20.876015 a 2.1877172,2.1877172 0 1 1 -4.375435,0 2.1877172,2.1877172 0 1 1 4.375435,0 z"
       sodipodi:ry="2.1877172"
       sodipodi:rx="2.1877172"
       sodipodi:cy="20.876015"
       sodipodi:cx="43.272305"
       id="path3038"
       style="fill:#a05a2c;stroke:#a05a2c"
       sodipodi:type="arc" />
    <path
       sodipodi:type="arc"
       style="fill:#de8787;stroke:#de8787"
       id="path3003"
       sodipodi:cx="29.404404"
       sodipodi:cy="47.38818"
       sodipodi:rx="0.48203939"
       sodipodi:ry="0.44495943"
       d="m 29.886443,47.38818 a 0.48203939,0.44495943 0 1 1 -0.964079,0 0.48203939,0.44495943 0 1 1 0.964079,0 z"
       transform="translate(0,988.36218)" />
    <path
       sodipodi:type="arc"
       style="fill:#de8787;stroke:#de8787"
       id="path3005"
       sodipodi:cx="34.187717"
       sodipodi:cy="47.276939"
       sodipodi:rx="0.44495943"
       sodipodi:ry="0.48203939"
       d="m 34.632677,47.276939 a 0.44495943,0.48203939 0 1 1 -0.889919,0 0.44495943,0.48203939 0 1 1 0.889919,0 z"
       transform="translate(0,988.36218)" />
    <path
       style="fill:#ffffff;stroke:#000000;stroke-width:1px;stroke-linecap:butt;stroke-linejoin:miter;stroke-opacity:1"
       d="m 38.205182,1018.3227 c 0.853178,5.1845 6.9947,4.0157 8.15759,0.5191 -0.829773,-5.2938 -6.707006,-6.2689 -8.15759,-0.5191 z"
       id="path3007"
       inkscape:connector-curvature="0"
       sodipodi:nodetypes="ccc" />
    <path
       sodipodi:type="arc"
       style="fill:#a05a2c;stroke:#a05a2c"
       id="path3009"
       sodipodi:cx="43.272305"
       sodipodi:cy="20.876015"
       sodipodi:rx="2.1877172"
       sodipodi:ry="2.1877172"
       d="m 45.460022,20.876015 a 2.1877172,2.1877172 0 1 1 -4.375435,0 2.1877172,2.1877172 0 1 1 4.375435,0 z"
       transform="matrix(0.83905439,0,0,0.94074931,5.6795194,998.53537)" />
  </g>
</svg>
