<?xml version="1.0" encoding="UTF-8" standalone="no"?>
<!-- Created with Inkscape (http://www.inkscape.org/) -->

<svg
   xmlns:dc="http://purl.org/dc/elements/1.1/"
   xmlns:cc="http://creativecommons.org/ns#"
   xmlns:rdf="http://www.w3.org/1999/02/22-rdf-syntax-ns#"
   xmlns:svg="http://www.w3.org/2000/svg"
   xmlns="http://www.w3.org/2000/svg"
   xmlns:sodipodi="http://sodipodi.sourceforge.net/DTD/sodipodi-0.dtd"
   xmlns:inkscape="http://www.inkscape.org/namespaces/inkscape"
   width="64"
   height="64"
   id="svg2"
   version="1.1"
   inkscape:version="0.48.2 r9819"
   sodipodi:docname="boxer.svg"
   inkscape:export-filename="/Developer/Workspace/Flash/BasicGame/src/data/boston.png"
   inkscape:export-xdpi="90"
   inkscape:export-ydpi="90">
  <defs
     id="defs4" />
  <sodipodi:namedview
     id="base"
     pagecolor="#ffffff"
     bordercolor="#666666"
     borderopacity="1.0"
     inkscape:pageopacity="0.0"
     inkscape:pageshadow="2"
     inkscape:zoom="13.484375"
     inkscape:cx="34.81253"
     inkscape:cy="31.880903"
     inkscape:document-units="px"
     inkscape:current-layer="layer1"
     showgrid="false"
     inkscape:window-width="1555"
     inkscape:window-height="1106"
     inkscape:window-x="0"
     inkscape:window-y="0"
     inkscape:window-maximized="0" />
  <metadata
     id="metadata7">
    <rdf:RDF>
      <cc:Work
         rdf:about="">
        <dc:format>image/svg+xml</dc:format>
        <dc:type
           rdf:resource="http://purl.org/dc/dcmitype/StillImage" />
        <dc:title></dc:title>
      </cc:Work>
    </rdf:RDF>
  </metadata>
  <g
     inkscape:label="Layer 1"
     inkscape:groupmode="layer"
     id="layer1"
     transform="translate(0,-988.36218)">
    <path
       style="fill:#784421;stroke:#502d16;stroke-width:1px;stroke-linecap:butt;stroke-linejoin:miter;stroke-opacity:1"
       d="m 44.273465,57.028969 2.521437,-0.51912 c 2.644931,-1.997711 0.902413,-3.485016 3.930475,-12.903824 0.624076,-7.173845 0.674005,-9.360933 -0.22248,-18.020856 -2.437712,-6.123563 -3.27356,-7.353222 -7.193512,-10.234068 -5.244387,-3.255689 -14.098349,-4.617885 -20.913093,0.3708 -5.107608,3.346615 -6.295149,4.584795 -7.638471,10.827345 -1.755099,7.568398 -1.003003,4.978276 -1.038238,16.01854 1.31394,5.072762 1.023478,11.247878 2.818077,13.422944 0.791038,0.696463 2.027036,1.085457 2.818075,0.815759 z"
       id="path3056"
       inkscape:connector-curvature="0"
       sodipodi:nodetypes="ccccccccccc"
       transform="translate(0,988.36218)"
       inkscape:export-xdpi="90"
       inkscape:export-ydpi="90" />
    <path
       style="fill:#000000;stroke:#000000;stroke-width:1px;stroke-linecap:butt;stroke-linejoin:miter;stroke-opacity:1;opacity:0.71480001"
       d="m 15.202781,53.691773 c 0.615856,1.543313 0.07303,0.171642 2.743917,1.409038 -0.870535,-3.664057 -0.402969,-7.009291 0,-8.380069 0.484491,-1.911219 -0.137831,-1.036147 2.521436,-6.748552 4.96103,-3.976017 5.191777,-3.937938 8.825029,-4.523755 l 5.265354,0.29664 c 1.65496,-0.05624 3.39788,1.185473 5.117033,2.076478 1.333111,1.488496 2.250708,3.060094 2.595597,4.746234 1.179267,4.746234 3.092005,6.748551 3.485515,11.494785 2.984084,0.0061 2.508924,1.3904 2.743917,-0.370799 0.08401,1.348221 -1.264601,3.233654 -3.707995,3.411356 L 18.391657,56.880648 c -1.831525,-0.06169 -2.846009,-2.374215 -3.188876,-3.188875 z"
       id="path3049"
       inkscape:connector-curvature="0"
       transform="translate(0,988.36218)"
       sodipodi:nodetypes="ccccccccccccc" />
    <path
       style="fill:#e6e6e6;stroke:#e6e6e6;stroke-width:1px;stroke-linecap:butt;stroke-linejoin:miter;stroke-opacity:1"
       d="m 19.355736,1045.2428 c 0.612648,-5.2874 -0.746137,-9.5891 2.002318,-15.9444 3.906716,-4.6111 5.791861,-3.7351 8.454229,-4.9687 1.384041,-1.8062 1.073145,-1.694 2.002317,-3.7821 1.10532,2.6093 0.885496,2.4904 2.521437,4.0046 2.101198,1.2795 4.202395,1.042 6.303593,4.0788 1.9727,2.6409 2.029378,11.4131 3.040556,17.1309 -8.10815,3.488 -16.2163,3.31 -24.32445,-0.5191 z"
       id="path3066"
       inkscape:connector-curvature="0"
       sodipodi:nodetypes="cccccccc" />
    <path
       style="fill:#808080;stroke:#808080;stroke-width:1px;stroke-linecap:butt;stroke-linejoin:miter;stroke-opacity:1"
       d="m 36.931634,1035.9728 c 3.124534,0.3423 2.625368,3.9803 3.337196,6.1552 -5.586713,2.0009 -11.395906,1.5634 -16.982619,0.2225 1.02749,-3.0847 0.441977,-6.1541 3.782155,-6.3777 z"
       id="path3045"
       inkscape:connector-curvature="0"
       sodipodi:nodetypes="ccccc" />
    <rect
       style="fill:#4d4d4d;stroke:#4d4d4d"
       id="rect3013"
       width="9.3636618"
       height="6.2668066"
       x="27.263674"
       y="1031.2021"
       rx="3.6154466"
       ry="2.0580885" />
    <path
       style="fill:none;stroke:#000000;stroke-width:1px;stroke-linecap:butt;stroke-linejoin:miter;stroke-opacity:1"
       d="m 34.651217,1035.843 c 0.406717,-0.178 0.718036,-0.2607 0.926999,-0.241 0.305508,-0.2061 0.668706,-1.5326 -0.22248,-2.2989 -3.430804,-1.2161 -4.622854,-1.0123 -6.952491,-0.037 -0.735773,0.4028 -0.852528,2.0853 -0.01854,2.2989 l 1.019698,0.5006 0,0"
       id="path3037"
       inkscape:connector-curvature="0"
       sodipodi:nodetypes="ccccccc" />
    <path
       style="fill:none;stroke:#000000;stroke-width:1px;stroke-linecap:butt;stroke-linejoin:miter;stroke-opacity:1"
       d="m 32.05562,1044.0006 -0.07416,-11.1054"
       id="path3039"
       inkscape:connector-curvature="0"
       sodipodi:nodetypes="cc" />
    <path
       style="fill:none;stroke:#000000;stroke-width:1px;stroke-linecap:butt;stroke-linejoin:miter;stroke-opacity:1"
       d="m 18.910777,1040.719 c 10.359157,4.3634 15.390981,5.1494 24.546929,-10e-5"
       id="path3041"
       inkscape:connector-curvature="0"
       sodipodi:nodetypes="cc" />
    <path
       sodipodi:nodetypes="ccc"
       inkscape:connector-curvature="0"
       id="path3040"
       d="m 26.117118,1018.3969 c -1.136437,5.1772 -7.320932,3.5239 -8.15759,0.5191 0.958861,-5.1973 6.964073,-6.3435 8.15759,-0.5191 z"
       style="fill:#ffffff;stroke:#000000;stroke-width:1px;stroke-linecap:butt;stroke-linejoin:miter;stroke-opacity:1" />
    <path
       transform="matrix(-0.83905439,0,0,0.94074931,58.642781,998.60953)"
       d="m 45.460022,20.876015 a 2.1877172,2.1877172 0 1 1 -4.375435,0 2.1877172,2.1877172 0 1 1 4.375435,0 z"
       sodipodi:ry="2.1877172"
       sodipodi:rx="2.1877172"
       sodipodi:cy="20.876015"
       sodipodi:cx="43.272305"
       id="path3038"
       style="fill:#a05a2c;stroke:#a05a2c"
       sodipodi:type="arc" />
    <path
       sodipodi:type="arc"
       style="fill:#de8787;stroke:#de8787"
       id="path3003"
       sodipodi:cx="29.404404"
       sodipodi:cy="47.38818"
       sodipodi:rx="0.48203939"
       sodipodi:ry="0.44495943"
       d="m 29.886443,47.38818 a 0.48203939,0.44495943 0 1 1 -0.964079,0 0.48203939,0.44495943 0 1 1 0.964079,0 z"
       transform="translate(0,988.36218)" />
    <path
       sodipodi:type="arc"
       style="fill:#de8787;stroke:#de8787"
       id="path3005"
       sodipodi:cx="34.187717"
       sodipodi:cy="47.276939"
       sodipodi:rx="0.44495943"
       sodipodi:ry="0.48203939"
       d="m 34.632677,47.276939 a 0.44495943,0.48203939 0 1 1 -0.889919,0 0.44495943,0.48203939 0 1 1 0.889919,0 z"
       transform="translate(0,988.36218)" />
    <path
       style="fill:#ffffff;stroke:#000000;stroke-width:1px;stroke-linecap:butt;stroke-linejoin:miter;stroke-opacity:1"
       d="m 38.205182,1018.3227 c 0.853178,5.1845 6.9947,4.0157 8.15759,0.5191 -0.829773,-5.2938 -6.707006,-6.2689 -8.15759,-0.5191 z"
       id="path3007"
       inkscape:connector-curvature="0"
       sodipodi:nodetypes="ccc" />
    <path
       sodipodi:type="arc"
       style="fill:#a05a2c;stroke:#a05a2c"
       id="path3009"
       sodipodi:cx="43.272305"
       sodipodi:cy="20.876015"
       sodipodi:rx="2.1877172"
       sodipodi:ry="2.1877172"
       d="m 45.460022,20.876015 a 2.1877172,2.1877172 0 1 1 -4.375435,0 2.1877172,2.1877172 0 1 1 4.375435,0 z"
       transform="matrix(0.83905439,0,0,0.94074931,5.6795194,998.53537)" />
    <path
       style="fill:#784421;stroke:#502d16;stroke-width:1px;stroke-linecap:butt;stroke-linejoin:miter;stroke-opacity:1"
       d="m 11.198146,41.158748 c 3.653943,-0.63827 -2.1710069,-7.620389 6.822712,-22.470451 -4.500023,2.626109 -10.7480722,3.2908 -12.7555046,9.121668 2.2711251,11.487727 2.4328356,12.916993 5.9327926,13.348783 z"
       id="path3051"
       inkscape:connector-curvature="0"
       transform="translate(0,988.36218)"
       sodipodi:nodetypes="cccc" />
    <path
       sodipodi:nodetypes="cccc"
       inkscape:connector-curvature="0"
       id="path3053"
       d="m 53.914253,1029.2985 c -3.653943,-0.6383 2.171007,-7.6204 -6.822712,-22.4705 4.500023,2.6261 10.748072,3.2908 12.755504,9.1217 -2.271125,11.4877 -2.432835,12.917 -5.932792,13.3488 z"
       style="fill:#784421;stroke:#502d16;stroke-width:1px;stroke-linecap:butt;stroke-linejoin:miter;stroke-opacity:1" />
  </g>
</svg>
