<?xml version="1.0" encoding="UTF-8" standalone="no"?>
<!-- Created with Inkscape (http://www.inkscape.org/) -->

<svg
   xmlns:dc="http://purl.org/dc/elements/1.1/"
   xmlns:cc="http://creativecommons.org/ns#"
   xmlns:rdf="http://www.w3.org/1999/02/22-rdf-syntax-ns#"
   xmlns:svg="http://www.w3.org/2000/svg"
   xmlns="http://www.w3.org/2000/svg"
   xmlns:sodipodi="http://sodipodi.sourceforge.net/DTD/sodipodi-0.dtd"
   xmlns:inkscape="http://www.inkscape.org/namespaces/inkscape"
   width="64"
   height="64"
   id="svg2"
   version="1.1"
   inkscape:version="0.48.2 r9819"
   sodipodi:docname="bullterrier.svg"
   inkscape:export-filename="/Developer/Workspace/Flash/BasicGame/src/data/bullterrierbone.png"
   inkscape:export-xdpi="90"
   inkscape:export-ydpi="90">
  <defs
     id="defs4" />
  <sodipodi:namedview
     id="base"
     pagecolor="#ffffff"
     bordercolor="#666666"
     borderopacity="1.0"
     inkscape:pageopacity="0.0"
     inkscape:pageshadow="2"
     inkscape:zoom="13.484375"
     inkscape:cx="30.676899"
     inkscape:cy="26.979535"
     inkscape:document-units="px"
     inkscape:current-layer="layer1"
     showgrid="false"
     inkscape:window-width="1449"
     inkscape:window-height="1097"
     inkscape:window-x="0"
     inkscape:window-y="0"
     inkscape:window-maximized="0" />
  <metadata
     id="metadata7">
    <rdf:RDF>
      <cc:Work
         rdf:about="">
        <dc:format>image/svg+xml</dc:format>
        <dc:type
           rdf:resource="http://purl.org/dc/dcmitype/StillImage" />
        <dc:title></dc:title>
      </cc:Work>
    </rdf:RDF>
  </metadata>
  <g
     inkscape:label="Layer 1"
     inkscape:groupmode="layer"
     id="layer1"
     transform="translate(0,-988.36218)">
    <path
       style="fill:#d3bc5f;stroke:#a0892c;stroke-width:1px;stroke-linecap:butt;stroke-linejoin:miter;stroke-opacity:1;display:inline"
       d="m 17.288196,1046.8007 31.8146,-0.1482 c 0,0 -1.023522,-2.9543 -0.14832,-3.9305 0.463216,-0.5167 1.4518,-0.4505 2.076478,-0.1483 0.592534,0.2866 1.112399,1.6315 1.112399,1.6315 0,0 0.616389,-1.2398 1.186558,-1.5573 0.672642,-0.3746 1.733498,-0.745 2.298957,-0.2225 2.070072,1.9128 1.831032,6.4477 -0.14832,8.4542 -0.555794,0.5634 -1.702205,0.4938 -2.373117,0.074 -0.666003,-0.4167 -0.964078,-2.1507 -0.964078,-2.1507 0,0 -0.27025,1.6157 -0.889919,2.0023 -0.566652,0.3535 -1.538848,0.4069 -2.002318,-0.074 -0.343077,-0.356 0,-1.4832 0,-1.4832 l -31.88876,-0.6674 c 0,0 0.267734,1.8901 -0.370799,2.3731 -0.655358,0.4957 -1.829187,0.2449 -2.447277,-0.2966 -0.595307,-0.5215 -0.59328,-2.299 -0.59328,-2.299 0,0 -0.807266,1.5819 -1.557357,1.9282 -0.85313,0.3939 -2.1786,0.6145 -2.8180776,-0.074 -1.414692,-1.5232 -1.184588,-4.7708 0.29664,-6.2294 0.5463106,-0.538 1.6652096,-0.5055 2.2989586,-0.074 0.607521,0.4137 0.741599,2.0765 0.741599,2.0765 0,0 0.541267,-2.0825 1.409037,-2.4473 0.729593,-0.3067 1.741449,0.032 2.298957,0.5933 0.646079,0.651 0.667439,2.6693 0.667439,2.6693 z"
       id="path3004"
       inkscape:connector-curvature="0"
       sodipodi:nodetypes="ccsscsssscssccsscsssscssc" />
    <path
       style="fill:#e6e6e6;stroke:#cccccc;stroke-width:1px;stroke-linecap:butt;stroke-linejoin:miter;stroke-opacity:1"
       d="m 23.58285,1046.9485 c 3.529344,2.327 14.894052,2.8194 18.391657,0.445 5.082131,-3.4501 3.87023,-10.558 6.822712,-15.9444 1.019493,-1.86 2.234809,-4.8803 2.892237,-6.8969 1.233629,-3.7839 -0.131303,-10.3863 0.519119,-14.3128 2.409115,-2.1592 3.727932,-14.19164 2.298957,-15.87027 -2.565588,-0.0117 -10.659517,6.76027 -12.829664,11.56897 -6.229432,-2.0027 -12.533025,-2.1751 -18.762457,-0.2225 -2.102171,-4.9429 -8.361475,-10.40022 -14.4611815,-12.53303 -0.7550305,-0.0487 -1.1279789,10.52683 2.3731165,16.31523 0.295947,3.9194 -0.685292,11.3476 0.815759,14.9802 0.834447,2.0194 2.257081,4.4225 3.485516,6.2295 3.708369,5.455 2.947316,12.6102 8.454229,16.241 z"
       id="path3201"
       inkscape:connector-curvature="0"
       sodipodi:nodetypes="ssssccccccsss" />
    <path
       style="fill:#000000;stroke:#000000;stroke-width:1px;stroke-linecap:butt;stroke-linejoin:miter;stroke-opacity:1"
       d="m 25.585168,59.327925 c 1.068815,-1.977597 0.709229,-3.955195 0.22248,-5.932792 3.814523,0.422276 4.832686,2.017813 12.755504,0.07416 -0.78459,2.175357 -0.572481,4.350715 0.22248,6.526072 -4.29225,0.609374 -8.528414,0.937191 -13.200464,-0.66744 z"
       id="path4325"
       inkscape:connector-curvature="0"
       transform="translate(0,988.36218)"
       sodipodi:nodetypes="ccccc" />
    <path
       style="fill:#000000;stroke:#000000"
       d="m 24.398609,1015.1339 c 0,1.3516 -1.394506,2.4473 -3.114716,2.4473 -1.72021,0 -3.114716,-1.0957 -3.114716,-2.4473 0,-1.3516 1.394506,-2.4473 3.114716,-2.4473 1.72021,0 3.114716,1.0957 3.114716,2.4473 z"
       id="path4327"
       inkscape:connector-curvature="0" />
    <path
       inkscape:connector-curvature="0"
       id="path4333"
       d="m 45.979142,1015.5789 c 0,1.3516 -1.394506,2.4473 -3.114716,2.4473 -1.72021,0 -3.114716,-1.0957 -3.114716,-2.4473 0,-1.3516 1.394506,-2.4473 3.114716,-2.4473 1.72021,0 3.114716,1.0957 3.114716,2.4473 z"
       style="fill:#000000;stroke:#000000" />
    <path
       sodipodi:type="arc"
       style="fill:#e9afaf;stroke:#e9afaf"
       id="path4335"
       sodipodi:cx="28.403244"
       sodipodi:cy="56.472771"
       sodipodi:rx="0.59327924"
       sodipodi:ry="0.48203939"
       d="m 28.996523,56.472771 a 0.59327924,0.48203939 0 1 1 -1.186558,0 0.59327924,0.48203939 0 1 1 1.186558,0 z"
       transform="translate(0,988.36218)" />
    <path
       transform="translate(6.8227115,988.36218)"
       d="m 28.996523,56.472771 a 0.59327924,0.48203939 0 1 1 -1.186558,0 0.59327924,0.48203939 0 1 1 1.186558,0 z"
       sodipodi:ry="0.48203939"
       sodipodi:rx="0.59327924"
       sodipodi:cy="56.472771"
       sodipodi:cx="28.403244"
       id="path4337"
       style="fill:#e9afaf;stroke:#e9afaf"
       sodipodi:type="arc" />
    <path
       style="fill:#ffaaaa;stroke:#ffaaaa;stroke-width:1px;stroke-linecap:butt;stroke-linejoin:miter;stroke-opacity:1"
       d="M 12.755504,19.726535 C 11.266899,18.965623 9.1870862,12.863126 9.6407879,6.8227115 12.804944,9.3666605 15.9691,9.9532083 19.133256,14.461182 c 0.33692,1.630602 0.427686,3.236588 -1.186558,4.672074 -0.837406,0.945504 -3.865669,1.068971 -5.191194,0.593279 z"
       id="path4339"
       inkscape:connector-curvature="0"
       transform="translate(0,988.36218)"
       sodipodi:nodetypes="ccccc" />
    <path
       sodipodi:nodetypes="ccccc"
       inkscape:connector-curvature="0"
       id="path4343"
       d="m 50.195503,1009.7944 c 1.488605,-0.7609 3.568418,-6.8634 3.114716,-12.90383 -3.164156,2.54395 -6.328312,3.13053 -9.492468,7.63853 -0.33692,1.6306 -0.427686,3.2365 1.186558,4.672 0.837406,0.9455 3.865669,1.069 5.191194,0.5933 z"
       style="fill:#ffaaaa;stroke:#ffaaaa;stroke-width:1px;stroke-linecap:butt;stroke-linejoin:miter;stroke-opacity:1" />
  </g>
</svg>
