<?xml version="1.0" encoding="UTF-8" standalone="no"?>
<!-- Created with Inkscape (http://www.inkscape.org/) -->

<svg
   xmlns:dc="http://purl.org/dc/elements/1.1/"
   xmlns:cc="http://creativecommons.org/ns#"
   xmlns:rdf="http://www.w3.org/1999/02/22-rdf-syntax-ns#"
   xmlns:svg="http://www.w3.org/2000/svg"
   xmlns="http://www.w3.org/2000/svg"
   xmlns:sodipodi="http://sodipodi.sourceforge.net/DTD/sodipodi-0.dtd"
   xmlns:inkscape="http://www.inkscape.org/namespaces/inkscape"
   width="64"
   height="64"
   id="svg2"
   version="1.1"
   inkscape:version="0.48.2 r9819"
   sodipodi:docname="pug.svg"
   inkscape:export-filename="/Developer/Workspace/Flash/BasicGame/src/data/boxer.png"
   inkscape:export-xdpi="90"
   inkscape:export-ydpi="90">
  <defs
     id="defs4" />
  <sodipodi:namedview
     id="base"
     pagecolor="#ffffff"
     bordercolor="#666666"
     borderopacity="1.0"
     inkscape:pageopacity="0.0"
     inkscape:pageshadow="2"
     inkscape:zoom="13.484375"
     inkscape:cx="25.839181"
     inkscape:cy="31.880903"
     inkscape:document-units="px"
     inkscape:current-layer="layer1"
     showgrid="false"
     inkscape:window-width="1555"
     inkscape:window-height="1106"
     inkscape:window-x="0"
     inkscape:window-y="0"
     inkscape:window-maximized="0" />
  <metadata
     id="metadata7">
    <rdf:RDF>
      <cc:Work
         rdf:about="">
        <dc:format>image/svg+xml</dc:format>
        <dc:type
           rdf:resource="http://purl.org/dc/dcmitype/StillImage" />
        <dc:title />
      </cc:Work>
    </rdf:RDF>
  </metadata>
  <g
     inkscape:label="Layer 1"
     inkscape:groupmode="layer"
     id="layer1"
     transform="translate(0,-988.36218)"
     style="opacity:1;display:inline">
    <path
       style="fill:#deaa87;stroke:#502d16;stroke-width:1px;stroke-linecap:butt;stroke-linejoin:miter;stroke-opacity:1"
       d="m 44.273465,57.028969 2.521437,-0.51912 c 2.644931,-1.997711 5.055368,-3.262536 8.08343,-12.681344 0.624076,-7.173845 0.748165,-9.880053 -0.14832,-18.539976 C 52.2923,19.164966 47.525977,19.640986 43.383545,17.575899 36.904463,15.560971 24.439704,15.52166 21.061414,17.13094 c -4.14353,2.382536 -8.816586,3.249916 -10.159908,9.492466 -1.7550992,7.568398 -1.0030032,4.978276 -1.0382382,16.01854 1.3139402,5.072762 4.8797932,11.173718 6.6743922,13.348784 0.791038,0.696463 2.027036,1.085457 2.818075,0.815759 z"
       id="path3056"
       inkscape:connector-curvature="0"
       sodipodi:nodetypes="ccccccccccc"
       transform="translate(0,988.36218)"
       inkscape:export-xdpi="90"
       inkscape:export-ydpi="90" />
    <path
       style="fill:#808080;stroke:#666666;stroke-width:1px;stroke-linecap:butt;stroke-linejoin:miter;stroke-opacity:1"
       d="m 10.456547,43.976825 c 0,0 2.573512,10.715405 6.971031,12.755504 10.224569,1.578971 28.774044,0.07416 28.774044,0.07416 2.842797,-1.391334 6.501352,-5.710313 8.52839,-12.829664 0,0 -4.631238,1.566375 -6.822712,0.889919 -5.286408,-1.631789 -7.186186,-9.156616 -12.384704,-11.049826 -2.323804,-0.846289 -5.209694,-0.894894 -7.415991,0.222479 -3.58211,1.81415 -3.846171,7.654253 -7.415991,9.492469 -3.035744,1.563203 -10.234067,0.444959 -10.234067,0.444959 z"
       id="path3011"
       inkscape:connector-curvature="0"
       transform="translate(0,988.36218)"
       sodipodi:nodetypes="ccccssssc" />
    <rect
       style="fill:#4d4d4d;stroke:#4d4d4d"
       id="rect3013"
       width="9.3636618"
       height="6.2668066"
       x="27.560314"
       y="1021.7838"
       rx="3.6154466"
       ry="2.0580885" />
    <path
       style="fill:none;stroke:#000000;stroke-width:1px;stroke-linecap:butt;stroke-linejoin:miter;stroke-opacity:1"
       d="m 34.947857,1026.4247 c 0.406717,-0.178 0.718036,-0.2607 0.926999,-0.241 0.305508,-0.2061 0.668706,-1.5326 -0.22248,-2.2989 -3.430804,-1.2161 -4.622854,-1.0123 -6.952491,-0.037 -0.735773,0.4028 -0.852528,2.0853 -0.01854,2.2989 l 1.019698,0.5006 0,0"
       id="path3037"
       inkscape:connector-curvature="0"
       sodipodi:nodetypes="ccccccc" />
    <path
       style="fill:none;stroke:#000000;stroke-width:1px;stroke-linecap:butt;stroke-linejoin:miter;stroke-opacity:1"
       d="M 32.35226,1038.4386 32.2781,1023.4769"
       id="path3039"
       inkscape:connector-curvature="0"
       sodipodi:nodetypes="cc" />
    <path
       style="fill:none;stroke:#000000;stroke-width:1px;stroke-linecap:butt;stroke-linejoin:miter;stroke-opacity:1"
       d="m 14.906142,1032.7097 c 10.096639,6.376 25.592512,8.563 35.077636,0.8898"
       id="path3041"
       inkscape:connector-curvature="0"
       sodipodi:nodetypes="cc" />
    <path
       sodipodi:nodetypes="ccc"
       inkscape:connector-curvature="0"
       id="path3040"
       d="m 26.784557,1017.6553 c -1.136437,5.1772 -7.320932,3.5239 -8.15759,0.5191 0.958861,-5.1973 6.964073,-6.3435 8.15759,-0.5191 z"
       style="fill:#ffffff;stroke:#000000;stroke-width:1px;stroke-linecap:butt;stroke-linejoin:miter;stroke-opacity:1" />
    <path
       transform="matrix(-0.83905439,0,0,0.94074931,59.31022,997.86793)"
       d="m 45.460022,20.876015 a 2.1877172,2.1877172 0 1 1 -4.375435,0 2.1877172,2.1877172 0 1 1 4.375435,0 z"
       sodipodi:ry="2.1877172"
       sodipodi:rx="2.1877172"
       sodipodi:cy="20.876015"
       sodipodi:cx="43.272305"
       id="path3038"
       style="fill:#a05a2c;stroke:#a05a2c"
       sodipodi:type="arc" />
    <path
       sodipodi:type="arc"
       style="fill:#de8787;stroke:#de8787"
       id="path3003"
       sodipodi:cx="29.404404"
       sodipodi:cy="47.38818"
       sodipodi:rx="0.48203939"
       sodipodi:ry="0.44495943"
       d="m 29.886443,47.38818 a 0.48203939,0.44495943 0 1 1 -0.964079,0 0.48203939,0.44495943 0 1 1 0.964079,0 z"
       transform="translate(0.29663963,978.94387)" />
    <path
       sodipodi:type="arc"
       style="fill:#de8787;stroke:#de8787"
       id="path3005"
       sodipodi:cx="34.187717"
       sodipodi:cy="47.276939"
       sodipodi:rx="0.44495943"
       sodipodi:ry="0.48203939"
       d="m 34.632677,47.276939 a 0.44495943,0.48203939 0 1 1 -0.889919,0 0.44495943,0.48203939 0 1 1 0.889919,0 z"
       transform="translate(0.29663963,978.94387)" />
    <path
       style="fill:#ffffff;stroke:#000000;stroke-width:1px;stroke-linecap:butt;stroke-linejoin:miter;stroke-opacity:1"
       d="m 39.61422,1016.9878 c 0.853178,5.1845 6.9947,4.0157 8.15759,0.5191 -0.829773,-5.2938 -6.707006,-6.2689 -8.15759,-0.5191 z"
       id="path3007"
       inkscape:connector-curvature="0"
       sodipodi:nodetypes="ccc" />
    <path
       sodipodi:type="arc"
       style="fill:#a05a2c;stroke:#a05a2c"
       id="path3009"
       sodipodi:cx="43.272305"
       sodipodi:cy="20.876015"
       sodipodi:rx="2.1877172"
       sodipodi:ry="2.1877172"
       d="m 45.460022,20.876015 a 2.1877172,2.1877172 0 1 1 -4.375435,0 2.1877172,2.1877172 0 1 1 4.375435,0 z"
       transform="matrix(0.83905439,0,0,0.94074931,7.0885576,997.20049)" />
    <path
       style="fill:#1a1a1a;stroke:#1a1a1a;stroke-width:1px;stroke-linecap:butt;stroke-linejoin:miter;stroke-opacity:1"
       d="m 7.2676709,1031.894 c 3.6539431,-0.6382 -2.1710069,-7.6204 6.8227121,-22.4704 -4.5000234,2.6261 -10.7480723,3.2908 -12.7555047,9.1216 2.2711251,11.4878 2.4328356,12.917 5.9327926,13.3488 z"
       id="path3051"
       inkscape:connector-curvature="0"
       sodipodi:nodetypes="cccc" />
    <path
       sodipodi:nodetypes="cccc"
       inkscape:connector-curvature="0"
       id="path3053"
       d="m 57.993048,1031.5974 c -3.653943,-0.6383 2.171007,-7.6204 -6.822712,-22.4705 4.500023,2.6261 10.748072,3.2908 12.755504,9.1217 -2.271125,11.4877 -2.432835,12.917 -5.932792,13.3488 z"
       style="fill:#1a1a1a;stroke:#1a1a1a;stroke-width:1px;stroke-linecap:butt;stroke-linejoin:miter;stroke-opacity:1" />
  </g>
</svg>
