<?xml version="1.0" encoding="UTF-8" standalone="no"?>
<!-- Created with Inkscape (http://www.inkscape.org/) -->

<svg
   xmlns:dc="http://purl.org/dc/elements/1.1/"
   xmlns:cc="http://creativecommons.org/ns#"
   xmlns:rdf="http://www.w3.org/1999/02/22-rdf-syntax-ns#"
   xmlns:svg="http://www.w3.org/2000/svg"
   xmlns="http://www.w3.org/2000/svg"
   xmlns:sodipodi="http://sodipodi.sourceforge.net/DTD/sodipodi-0.dtd"
   xmlns:inkscape="http://www.inkscape.org/namespaces/inkscape"
   width="64"
   height="64"
   id="svg2"
   version="1.1"
   inkscape:version="0.48.2 r9819"
   sodipodi:docname="frenchy.svg"
   inkscape:export-filename="/Developer/Workspace/Flash/BasicGame/src/data/frenchybone.png"
   inkscape:export-xdpi="90"
   inkscape:export-ydpi="90">
  <defs
     id="defs4" />
  <sodipodi:namedview
     id="base"
     pagecolor="#ffffff"
     bordercolor="#666666"
     borderopacity="1.0"
     inkscape:pageopacity="0.0"
     inkscape:pageshadow="2"
     inkscape:zoom="9.534893"
     inkscape:cx="28.220284"
     inkscape:cy="41.718299"
     inkscape:document-units="px"
     inkscape:current-layer="layer3"
     showgrid="false"
     inkscape:window-width="1141"
     inkscape:window-height="1059"
     inkscape:window-x="39"
     inkscape:window-y="0"
     inkscape:window-maximized="0" />
  <metadata
     id="metadata7">
    <rdf:RDF>
      <cc:Work
         rdf:about="">
        <dc:format>image/svg+xml</dc:format>
        <dc:type
           rdf:resource="http://purl.org/dc/dcmitype/StillImage" />
        <dc:title></dc:title>
      </cc:Work>
    </rdf:RDF>
  </metadata>
  <g
     inkscape:groupmode="layer"
     id="layer2"
     inkscape:label="Sketch"
     style="opacity:0.20833333;display:none">
    <path
       style="fill:none;stroke:#000000;stroke-width:1px;stroke-linecap:butt;stroke-linejoin:miter;stroke-opacity:1"
       d="m 30.729238,36.521978 c 0.139838,0 0.279675,0 0.419512,0 0.245958,0 -0.04944,0.02472 0.209756,-0.104878 0.02351,-0.01175 0.39459,0 0.419512,0 0.244715,0 0.48943,0 0.734145,0 0.03496,0 0.06992,0 0.104878,0 0.03496,0 0.08016,0.02472 0.104878,0 0.02472,-0.02472 -0.02472,-0.08016 0,-0.104878 0.0048,-0.0048 0.47494,0 0.52439,0 0.139837,0 0.279675,0 0.419512,0 0.03496,0 0.08924,0.03127 0.104878,0 0.03127,-0.06254 -0.04944,-0.160316 0,-0.209756 0.04944,-0.04944 0.139837,0 0.209756,0 0.174796,0 0.349593,0 0.524389,0 0.03496,0 0.06992,0 0.104878,0 0.03496,0 0.07361,0.01563 0.104878,0 0.04422,-0.02211 0.06066,-0.08277 0.104878,-0.104878 0.04158,-0.02079 0.293193,0.02144 0.314634,0 0.02472,-0.02472 -0.02472,-0.08016 0,-0.104878 0.03681,-0.03681 0.451947,0.03622 0.52439,0 0.04422,-0.02211 0.06066,-0.08277 0.104878,-0.104878 0.02758,-0.01379 0.364669,0 0.419512,0 0.03496,0 0.08016,-0.02472 0.104878,0 0.02472,0.02472 -0.02472,0.08016 0,0.104878 0.02472,0.02472 0.08016,-0.02472 0.104877,0 0.02472,0.02472 -0.02472,0.08016 0,0.104878 0.02472,0.02472 0.08016,-0.02472 0.104878,0 0.02472,0.02472 -0.02472,0.08016 0,0.104878 0.02472,0.02472 0.08016,-0.02472 0.104878,0 0.0042,0.0042 0,0.380997 0,0.419512 0,0.594308 0,1.188617 0,1.782925 0,0.209756 0,0.419512 0,0.629268 0,0.03496 0.03496,0.104878 0,0.104878 -0.03496,0 0,-0.139838 0,-0.104878 0,0.06992 0,0.139837 0,0.209756 0,0.03496 0.02472,0.08016 0,0.104878 -0.02472,0.02472 -0.08016,-0.02472 -0.104878,0 -0.04944,0.04944 0.03127,0.147218 0,0.209755 -0.02211,0.04422 -0.08277,0.06066 -0.104878,0.104878 -0.01563,0.03127 0.02472,0.08016 0,0.104878 -0.02472,0.02472 -0.08924,-0.03127 -0.104877,0 -0.03127,0.06254 0,0.139838 0,0.209756 0,0.03496 0.02472,0.08016 0,0.104878 -0.02472,0.02472 -0.08924,-0.03127 -0.104878,0 -0.05217,0.104336 0.04149,0.293887 0,0.314634 -0.06254,0.03127 -0.147219,-0.03127 -0.209756,0 -0.03127,0.01563 0.02472,0.08016 0,0.104878 -0.02472,0.02472 -0.08016,-0.02472 -0.104878,0 -0.02472,0.02472 0,0.06992 0,0.104878 -0.06992,0 -0.147219,-0.03127 -0.209756,0 -0.03127,0.01563 0.02472,0.08016 0,0.104878 -0.05528,0.05528 -0.135596,0.08016 -0.209756,0.104878 -0.03316,0.01105 -0.08924,-0.03127 -0.104878,0 -0.03127,0.06254 0.03878,0.15158 0,0.209756 -0.0044,0.0067 -0.379005,0.185452 -0.419512,0.209756 -0.108085,0.06485 -0.201893,0.153385 -0.314634,0.209756 -0.09888,0.04944 -0.211989,0.06382 -0.314633,0.104877 -0.07258,0.02903 -0.139838,0.06992 -0.209756,0.104878 -0.06992,0.03496 -0.144714,0.06152 -0.209756,0.104878 -0.04114,0.02743 -0.06066,0.08277 -0.104878,0.104878 -0.06021,0.0301 -0.435116,-0.02232 -0.52439,0 -0.07584,0.01896 -0.132648,0.09203 -0.209756,0.104878 -0.204087,0.03401 -0.425181,-0.03401 -0.629267,0 -0.14218,0.0237 -0.277333,0.08118 -0.419512,0.104878 -0.06897,0.0115 -0.139838,0 -0.209756,0 -0.244715,0 -0.489431,0 -0.734146,0 -0.07242,0 -0.387625,0.01594 -0.419512,0 -0.04422,-0.02211 -0.06066,-0.08277 -0.104878,-0.104878 -0.03127,-0.01563 -0.08924,0.03127 -0.104877,0 -0.03127,-0.06254 0.03878,-0.15158 0,-0.209756 -0.04336,-0.06504 -0.154481,-0.0496 -0.209756,-0.104878 -0.08913,-0.08913 -0.120627,-0.225504 -0.209756,-0.314633 -0.110551,-0.110551 -0.308961,-0.09921 -0.419512,-0.209756 -0.05528,-0.05528 -0.06152,-0.144714 -0.104878,-0.209756 -0.347836,-0.347837 0.04944,0.09888 -0.104878,-0.209756 -0.02211,-0.04422 -0.08277,-0.06066 -0.104878,-0.104878 -0.01175,-0.02351 0,-0.39459 0,-0.419512 0,-0.314634 0,-0.629268 0,-0.943901 0,-0.209756 0,-0.419512 0,-0.629268 0,-0.104878 -0.03317,-0.215138 0,-0.314634 0.03127,-0.09381 0.178487,-0.11595 0.209756,-0.209756 0.129598,-0.388794 -0.141079,-0.06868 0.104878,-0.314634 0.03496,-0.03496 0.06066,-0.08277 0.104878,-0.104878 0.03127,-0.01563 0.08924,0.03127 0.104878,0 0,-0.594308 -0.06992,-0.03496 0.104878,-0.209755 0.02472,-0.02472 -0.02472,-0.08016 0,-0.104878 0.04944,-0.04944 0.147219,0.03127 0.209756,0 0.04422,-0.02211 0.06066,-0.08277 0.104878,-0.104878 0.03127,-0.01564 0.08016,0.02472 0.104878,0 0.02472,-0.02472 -0.03127,-0.08924 0,-0.104878 0.497522,-0.248761 -0.08413,0.734727 0.419511,-0.52439 z"
       id="path4631"
       inkscape:connector-curvature="0" />
    <path
       style="fill:none;stroke:#000000;stroke-width:1px;stroke-linecap:butt;stroke-linejoin:miter;stroke-opacity:1"
       d="m 29.785337,41.03173 c 0.609178,-0.365507 0.380249,-0.170493 0.734145,-0.52439 0.03496,-0.03496 0.06066,-0.08277 0.104878,-0.104878 0.03127,-0.01563 0.08924,0.03127 0.104878,0 0.03127,-0.06254 -0.03127,-0.147219 0,-0.209756 0.03127,-0.06254 0.160316,0.04944 0.209756,0 0.02472,-0.02472 -0.01563,-0.07361 0,-0.104878 0.04422,-0.08844 0.165536,-0.121315 0.209756,-0.209756 0.01563,-0.03127 -0.02472,-0.08016 0,-0.104878 0.02472,-0.02472 0.08016,0.02472 0.104878,0 0.02472,-0.02472 -0.03496,-0.104878 0,-0.104878 0.154318,0 -0.242958,0.347837 0.104878,0"
       id="path4633"
       inkscape:connector-curvature="0" />
    <path
       style="fill:none;stroke:#000000;stroke-width:1px;stroke-linecap:butt;stroke-linejoin:miter;stroke-opacity:1"
       d="m 33.875577,38.829293 c 0,0.174796 -0.02874,0.351971 0,0.52439 0.03399,0.20392 0.304742,0.06662 0.419512,0.104877 0.190482,0.0635 0.194637,0.08976 0.314633,0.209756 0.03496,0.03496 0.05798,0.08924 0.104878,0.104878 0.477435,0 0.006,-0.04944 0.314634,0.104878 0.03127,0.01563 0.08016,-0.02472 0.104878,0 0.02472,0.02472 -0.02472,0.08016 0,0.104878 0.04944,0.04944 0.178487,-0.06254 0.209756,0 0.03127,0.06254 -0.04944,0.160316 0,0.209756 0.07337,0.07337 0.322593,-0.04846 0.419512,0 0.259196,0.129598 -0.0362,0.104878 0.209756,0.104878"
       id="path4635"
       inkscape:connector-curvature="0" />
    <path
       style="fill:none;stroke:#000000;stroke-width:1px;stroke-linecap:butt;stroke-linejoin:miter;stroke-opacity:1"
       d="m 13.634133,51.414646 c 0.454471,0 0.908942,0 1.363413,0 0.454471,0 0.908943,0 1.363414,0 0.08586,0 0.456437,-0.02265 0.524389,0 0.07416,0.02472 0.133919,0.08592 0.209756,0.104878 0.135662,0.03392 0.28239,-0.02742 0.419512,0 0.108404,0.02168 0.20623,0.0832 0.314634,0.104878 0.06856,0.01371 0.141195,-0.01371 0.209756,0 0.108404,0.02168 0.205587,0.0867 0.314634,0.104878 0.137458,0.02291 0.565482,0 0.734145,0 0.123991,0 0.75691,0.02053 0.839024,0 0.04796,-0.01199 0.06374,-0.07745 0.104878,-0.104878 0.06504,-0.04336 0.139837,-0.06992 0.209756,-0.104878 0.06992,-0.03496 0.133918,-0.08592 0.209756,-0.104878 0.06783,-0.01696 0.141195,0.01371 0.209755,0 0.347837,-0.06957 0.244716,-0.09789 0.52439,-0.209755 0.102644,-0.04106 0.215754,-0.05544 0.314634,-0.104878 0.11274,-0.05637 0.197602,-0.162943 0.314634,-0.209756 0.129836,-0.05194 0.28385,0.03392 0.419512,0 0.208275,-0.05207 0.420992,-0.262565 0.629267,-0.314634 0.06783,-0.01696 0.143426,0.02211 0.209756,0 0.0469,-0.01563 0.05797,-0.08924 0.104878,-0.104878 0.06633,-0.02211 0.139837,0 0.209756,0 0.121399,0 0.430757,0.02341 0.52439,0 0.07584,-0.01896 0.133918,-0.08592 0.209756,-0.104878 0.06958,-0.0174 0.54029,0 0.629267,0 0.03496,0 0.07171,0.01105 0.104878,0 0.07416,-0.02472 0.135596,-0.08016 0.209756,-0.104878 0.05917,-0.01972 0.245718,0 0.314634,0 0.209756,0 0.419512,0 0.629268,0 0.104878,0 0.215138,0.03316 0.314634,0 0.0469,-0.01563 0.05797,-0.08924 0.104878,-0.104878 0.05095,-0.01698 0.62707,0 0.734145,0 0.03496,0 0.06992,0 0.104878,0 0.03496,0 0.07579,0.01939 0.104878,0 0.08227,-0.05485 0.121315,-0.165535 0.209756,-0.209756 0.06254,-0.03127 0.143425,0.02211 0.209756,0 0.0469,-0.01563 0.06066,-0.08277 0.104878,-0.104878 0.03127,-0.01563 0.08924,0.03127 0.104878,0 0.03127,-0.06254 -0.04944,-0.160316 0,-0.209756 0.04944,-0.04944 0.143425,0.02211 0.209756,0 0.09381,-0.03127 0.121315,-0.165535 0.209756,-0.209756 0.03127,-0.01563 0.08924,0.03127 0.104877,0 0.03127,-0.06254 -0.03878,-0.15158 0,-0.209755 0.04336,-0.06504 0.144714,-0.06152 0.209756,-0.104878 0.08227,-0.05485 0.121315,-0.165536 0.209756,-0.209756 0.03127,-0.01564 0.08016,0.02472 0.104878,0 0.02472,-0.02472 -0.02472,-0.08016 0,-0.104878 0.02472,-0.02472 0.06992,0 0.104878,0 0.03496,-0.06992 0.08016,-0.135596 0.104878,-0.209756 0.01105,-0.03317 -0.02472,-0.08016 0,-0.104878 0.02472,-0.02472 0.07361,0.01563 0.104878,0 0.04422,-0.02211 0.05797,-0.08924 0.104878,-0.104878 0.06633,-0.02211 0.147219,0.03127 0.209756,0 0.0969,-0.04845 0.422054,-0.447638 0.52439,-0.52439 0.06254,-0.0469 0.144713,-0.06152 0.209756,-0.104878 0.04114,-0.02742 0.06992,-0.06992 0.104877,-0.104878 0.139838,-0.139837 0.279675,-0.279674 0.419512,-0.419511 0.09819,-0.09819 0.480849,-0.451822 0.52439,-0.52439 0.05688,-0.0948 0.03855,-0.226193 0.104878,-0.314634 0.0469,-0.06254 0.15448,-0.0496 0.209756,-0.104878 0.178114,-0.178114 0.385225,-0.792635 0.52439,-0.839024 0.06633,-0.02211 0.147218,0.03127 0.209755,0 0.0324,-0.0162 -0.01876,-0.277116 0,-0.314633 0.02211,-0.04422 0.08277,-0.06066 0.104878,-0.104878 0.01563,-0.03127 -0.02472,-0.08016 0,-0.104878 0.02472,-0.02472 0.08924,0.03127 0.104878,0 0.09381,-0.08273 -0.0469,-0.220828 0,-0.314634 0.02211,-0.04422 0.08924,-0.05797 0.104878,-0.104878 0.02211,-0.06633 -0.03127,-0.147219 0,-0.209756 0.01564,-0.03127 0.08016,0.02472 0.104878,0 0.04944,-0.04944 -0.03127,-0.147219 0,-0.209756 0.02211,-0.04422 0.08277,-0.06066 0.104878,-0.104878 0.02079,-0.04158 -0.02144,-0.293193 0,-0.314634 0.02472,-0.02472 0.08924,0.03127 0.104878,0 0.03218,-0.06437 -0.03251,-0.459375 0,-0.524389 0.129598,-0.259196 0.104878,0.0362 0.104878,-0.209756 0,-0.03496 0,-0.06992 0,-0.104878 0,-0.03496 -0.03127,-0.08924 0,-0.104878 0.06254,-0.03127 0.147219,0.03127 0.209756,0 0.01059,-0.0053 0,-0.304624 0,-0.419512 0,-0.03496 -0.03496,-0.104878 0,-0.104878 0.03496,0 0,0.06992 0,0.104878 0,0.03496 0,0.06992 0,0.104878 0,0.245957 -0.02472,-0.04944 0.104878,0.209756 0.04195,0.0839 -0.04195,0.230731 0,0.314634 0.02211,0.04422 0.08924,0.05797 0.104878,0.104878 0.03747,0.11241 -0.02709,0.493831 0,0.629267 0.176608,0.883039 0.0016,0.0032 0.209756,0.419512 0.03127,0.06254 -0.06254,0.178487 0,0.209756 0.06254,0.03127 0.15158,-0.03878 0.209756,0 0.306983,0.204655 0.02148,0.147849 0.104878,0.314634 0.02211,0.04422 0.08924,0.05797 0.104878,0.104878 0.02211,0.06633 -0.02211,0.143425 0,0.209756 0.03127,0.09381 0.165535,0.121315 0.209755,0.209756 0.01564,0.03127 -0.01563,0.07361 0,0.104878 0.04422,0.08844 0.165536,0.121315 0.209756,0.209755 0.01564,0.03127 -0.02472,0.08016 0,0.104878 0.02472,0.02472 0.08924,-0.03127 0.104878,0 0.03127,0.06254 -0.03127,0.147219 0,0.209756 0.01564,0.03127 0.08016,-0.02472 0.104878,0 0.295309,0.0065 0.02671,0.236463 0.104878,0.314634 0.02472,0.02472 0.06992,0 0.104878,0 0,0.06992 -0.02211,0.143425 0,0.209756 0.01563,0.0469 0.06992,0.06992 0.104878,0.104878 0.03496,0.03496 0.06066,0.08277 0.104878,0.104878 0.03127,0.01563 0.07361,-0.01563 0.104878,0 0.103203,0.0516 0.316309,0.36791 0.419512,0.419512 0.06254,0.03127 0.147219,-0.03127 0.209756,0 0.04422,0.02211 0.06066,0.08277 0.104878,0.104878 0.03127,0.01563 0.07361,-0.01564 0.104878,0 0.04422,0.02211 0.06374,0.07745 0.104877,0.104878 0.06504,0.04336 0.144714,0.06152 0.209756,0.104878 0.267604,0.178402 -0.131093,0.09963 0.419512,0.209755 0.06961,0.01392 0.489977,-0.02294 0.52439,0 0.08227,0.05485 0.127483,0.154908 0.209756,0.209756 0.05818,0.03878 0.147219,-0.03127 0.209756,0 0.04422,0.02211 0.06066,0.08277 0.104878,0.104878 0.03127,0.01563 0.08924,-0.03127 0.104878,0 0.03127,0.06254 -0.03127,0.147219 0,0.209756 0.01563,0.03127 0.07361,-0.01563 0.104878,0 0.04422,0.02211 0.06066,0.08277 0.104877,0.104878 0.03127,0.01563 0.07361,-0.01563 0.104878,0 0.08844,0.04422 0.115951,0.178487 0.209756,0.209756 0.06633,0.02211 0.139838,0 0.209756,0 0.03496,0 0.07361,-0.01563 0.104878,0 0.04422,0.02211 0.06992,0.06992 0.104878,0.104878 0.06992,0 0.143425,-0.02211 0.209756,0 0.09381,0.03127 0.121315,0.165535 0.209756,0.209756 0.03127,0.01563 0.08924,-0.03127 0.104878,0 0.03127,0.06254 -0.03127,0.147219 0,0.209756 0.01563,0.03127 0.07361,-0.01564 0.104878,0 0.04422,0.02211 0.06066,0.08277 0.104878,0.104878 0.03127,0.01563 0.08016,-0.02472 0.104878,0 0.02472,0.02472 -0.02472,0.08016 0,0.104878 0.02472,0.02472 0.07361,-0.01564 0.104878,0 0.04422,0.02211 0.06066,0.08277 0.104878,0.104878 0.03127,0.01563 0.07171,-0.01106 0.104878,0 0.07416,0.02472 0.139837,0.06992 0.209755,0.104878 0.06992,0.03496 0.147219,0.05797 0.209756,0.104877 0.658645,0.493984 -0.331122,-0.0938 0.52439,0.419512 0.06703,0.04022 0.139837,0.06992 0.209756,0.104878 0.06992,0.03496 0.135596,0.08016 0.209756,0.104878 0.03317,0.01106 0.07171,-0.01105 0.104878,0 0.07416,0.02472 0.135596,0.08016 0.209756,0.104878 0.03316,0.01105 0.07361,-0.01563 0.104878,0 0.04422,0.02211 0.06066,0.08277 0.104878,0.104878 0.03127,0.01563 0.07361,-0.01563 0.104878,0 0.04422,0.02211 0.06066,0.08277 0.104877,0.104878 0.03127,0.01563 0.06992,0 0.104878,0 0.06992,0.03496 0.147219,0.05797 0.209756,0.104878 0.0791,0.05933 0.127483,0.154907 0.209756,0.209756 0.03092,0.02061 0.555519,0 0.629268,0 0.244715,0 0.48943,0 0.734145,0 0.06992,0 0.139838,0 0.209756,0 0.06992,0 0.143426,0.02211 0.209756,0 0.0469,-0.01563 0.05797,-0.08924 0.104878,-0.104878 0.132661,-0.04422 0.286851,0.04422 0.419512,0 0.0469,-0.01563 0.06066,-0.08277 0.104878,-0.104878 0.03127,-0.01563 0.06992,0 0.104878,0 0.109065,0 0.546769,0.02062 0.629268,0 0.07584,-0.01896 0.133102,-0.08955 0.209755,-0.104878 0.03606,-0.0072 0.573138,0.02245 0.629268,0 0.145161,-0.05806 0.271192,-0.160316 0.419512,-0.209756 0.06633,-0.02211 0.139837,0 0.209756,0 0.139837,0 0.281577,0.02299 0.419512,0 0.07711,-0.01285 0.133918,-0.08592 0.209756,-0.104878 0.06783,-0.01696 0.141195,0.01371 0.209755,0 0.108405,-0.02168 0.20623,-0.0832 0.314634,-0.104878 0.06856,-0.01371 0.141925,0.01696 0.209756,0 0.07584,-0.01896 0.137176,-0.07585 0.209756,-0.104878 0.102644,-0.04106 0.207384,-0.07806 0.314634,-0.104878 0.220679,-0.05517 -0.01053,0.138998 0.314634,-0.104878 0.0791,-0.05933 0.121315,-0.165535 0.209756,-0.209756 0.06254,-0.03127 0.143425,0.02211 0.209756,0 0.0469,-0.01563 0.06992,-0.06992 0.104877,-0.104877 0.06992,-0.06992 0.130652,-0.150428 0.209756,-0.209756 0.125075,-0.09381 0.294438,-0.115951 0.419512,-0.209756 0.0791,-0.05933 0.127483,-0.154907 0.209756,-0.209756 0.02909,-0.01939 0.07361,0.01563 0.104878,0 0.04422,-0.02211 0.06374,-0.07745 0.104878,-0.104878 0.06504,-0.04336 0.135596,-0.08016 0.209756,-0.104878 0.03316,-0.01105 0.08924,0.03127 0.104878,0 0.03127,-0.06254 -0.03127,-0.147219 0,-0.209756 0.01563,-0.03127 0.07361,0.01563 0.104878,0 0.04422,-0.02211 0.06066,-0.08277 0.104878,-0.104878 0.06254,-0.03127 0.147218,0.03127 0.209756,0 0.08844,-0.04422 0.121315,-0.165535 0.209755,-0.209756 0.03127,-0.01563 0.08016,0.02472 0.104878,0 0.02472,-0.02472 -0.02472,-0.08016 0,-0.104878 0.02472,-0.02472 0.08016,0.02472 0.104878,0 0.02472,-0.02472 -0.02472,-0.08016 0,-0.104878 0.05528,-0.05528 0.144714,-0.06152 0.209756,-0.104878 0.04114,-0.02742 0.06066,-0.08277 0.104878,-0.104878 0.03127,-0.01563 0.08016,0.02472 0.104878,0 0.02472,-0.02472 -0.02472,-0.08016 0,-0.104878 0.02472,-0.02472 0.08016,0.02472 0.104878,0 0.04944,-0.04944 -0.04944,-0.160315 0,-0.209755 0.02472,-0.02472 0.06992,0 0.104878,0 0,-0.06992 -0.03127,-0.147219 0,-0.209756 0.01563,-0.03127 0.09382,0.03316 0.104878,0 0.05528,-0.165827 -0.05528,-0.358563 0,-0.52439 0.01563,-0.0469 0.08277,-0.06066 0.104878,-0.104878 0.01563,-0.03127 -0.02472,-0.08016 0,-0.104878 0.02472,-0.02472 0.08016,0.02472 0.104878,0 0.02472,-0.02472 -0.01563,-0.07361 0,-0.104878 0.02211,-0.04422 0.08277,-0.06066 0.104878,-0.104878 0.03127,-0.06254 -0.06254,-0.178487 0,-0.209756 0.06254,-0.03127 0.139837,0 0.209756,0"
       id="path4641"
       inkscape:connector-curvature="0" />
    <path
       style="fill:none;stroke:#000000;stroke-width:1px;stroke-linecap:butt;stroke-linejoin:miter;stroke-opacity:1"
       d="m 16.780471,34.948809 c -0.139837,0.06992 -0.300807,0.108009 -0.419511,0.209756 -0.37723,0.323339 -0.481859,0.854875 -0.734146,1.258535 -0.09363,0.149813 -0.535635,0.689211 -0.629268,0.839024 -0.13053,0.208849 -0.348473,0.730786 -0.419511,0.943901 -0.04558,0.136744 -0.06528,0.280917 -0.104878,0.419512 -0.03037,0.106297 -0.07451,0.208336 -0.104878,0.314634 -0.0396,0.138595 -0.0593,0.282767 -0.104878,0.419512 -0.02472,0.07416 -0.08592,0.133918 -0.104878,0.209755 -0.01696,0.06783 0,0.139838 0,0.209756 0,0.139838 0,0.279675 0,0.419512 0,0.104878 0.01483,0.21081 0,0.314634 -0.02039,0.142692 -0.087,0.276484 -0.104878,0.419512 -0.01734,0.138757 0.01978,0.28108 0,0.419512 -0.01563,0.109439 -0.0832,0.206229 -0.104878,0.314633 -0.01371,0.06856 0,0.139838 0,0.209756 0,0.314634 0,0.629268 0,0.943902 0,0.104878 0.01724,0.211183 0,0.314634 -0.01817,0.109047 -0.08924,0.205193 -0.104878,0.314633 -0.01978,0.138432 0,0.279675 0,0.419512 0,0.104878 0,0.209756 0,0.314634 0,0.48943 0,0.978861 0,1.468291 0,0.104878 0.01724,0.211183 0,0.314634 -0.01818,0.109047 -0.0867,0.205587 -0.104878,0.314634 -0.01724,0.103451 0,0.209756 0,0.314634 0,0.104878 0,0.209756 0,0.314634 0,0.524389 0,1.048779 0,1.573169 0,0.314634 0,0.629268 0,0.943901 0,0.104878 -0.03317,0.215138 0,0.314634 0.01563,0.0469 0.08277,0.06066 0.104878,0.104878 0.01563,0.03127 0,0.06992 0,0.104878 0,0.03496 0,0.06992 0,0.104878 0,0.105618 -0.01933,0.571268 0,0.629268 0.03127,0.09381 0.154907,0.127483 0.209756,0.209756 0.253976,0.380964 -0.03071,0.07417 0.209756,0.314634"
       id="path4647"
       inkscape:connector-curvature="0" />
    <path
       style="fill:none;stroke:#000000;stroke-width:1px;stroke-linecap:butt;stroke-linejoin:miter;stroke-opacity:1"
       d="m 6.5024327,41.660997 c 0,-1.398372 0,-2.796745 0,-4.195118 0,-0.349593 0,-0.699186 0,-1.048779 0,-0.209756 -0.020872,-0.420553 0,-0.629268 0.014343,-0.143425 0.087,-0.276484 0.1048779,-0.419511 0.017345,-0.138758 0,-0.279675 0,-0.419512 0,-0.244715 -0.018769,-0.490151 0,-0.734146 0.01631,-0.212023 0.081395,-0.417919 0.104878,-0.629268 0.061179,-0.550609 -0.081572,-0.08157 0,-0.734145 0.017879,-0.143028 0.090535,-0.276086 0.1048779,-0.419512 0,-1.906665 -0.050873,0.352982 0.104878,-1.048779 0.019303,-0.173728 -0.03428,-0.352988 0,-0.52439 0.036921,-0.184606 0.1556593,-0.344068 0.2097559,-0.52439 0.051222,-0.17074 0.053656,-0.353649 0.1048779,-0.52439 0.054097,-0.180322 0.1556593,-0.344067 0.2097559,-0.524389 0.051222,-0.170741 0.057975,-0.352413 0.104878,-0.52439 0.3146338,-1.153657 0.1048779,-0.209756 0.3146338,-0.943902 0.039599,-0.138595 0.048098,-0.287025 0.1048779,-0.419511 0.049653,-0.115856 0.1601034,-0.198778 0.2097559,-0.314634 0.05678,-0.132487 0.065279,-0.280917 0.104878,-0.419512 0.030371,-0.106298 0.074507,-0.208336 0.1048779,-0.314634 0.039599,-0.138595 0.059297,-0.282768 0.104878,-0.419512 0.059534,-0.1786 0.1398372,-0.349593 0.2097559,-0.524389 0.1398372,-0.349594 0.2908375,-0.694926 0.4195118,-1.04878 0.1511202,-0.41558 0.2494332,-0.850347 0.4195117,-1.258535 0.090198,-0.216475 0.2175912,-0.415774 0.3146339,-0.629268 0.077903,-0.171387 0.1332956,-0.352354 0.209756,-0.52439 0.155375,-0.349593 0.378726,-0.699186 0.52439,-1.048779 0.08504,-0.204094 0.134195,-0.421477 0.209756,-0.629268 0.06434,-0.176927 0.146436,-0.347096 0.209755,-0.524389 0.259908,-0.727741 0.48972,-1.469159 0.734146,-2.202437 0.03496,-0.104878 0.06382,-0.21199 0.104878,-0.314634 0.02903,-0.07258 0.08592,-0.133919 0.104878,-0.209756 0.01696,-0.06783 -0.02211,-0.143425 0,-0.209756 0.01563,-0.0469 0.08277,-0.06066 0.104878,-0.104878 0.01563,-0.03127 -0.02472,-0.08016 0,-0.104878 0.02472,-0.02472 0.06992,0 0.104878,0 0.06992,-0.06992 0.154907,-0.127483 0.209756,-0.209756 0.02336,-0.03505 -0.01384,-0.25929 0,-0.314634 0.02681,-0.10725 0.05544,-0.215754 0.104878,-0.314633 0.05637,-0.112741 0.147218,-0.205194 0.209756,-0.314634 0.155135,-0.271487 0.267658,-0.565687 0.419511,-0.839024 0.099,-0.178193 0.223471,-0.342064 0.314634,-0.52439 0.08419,-0.168386 0.125563,-0.356003 0.209756,-0.524389 0.110936,-0.221872 0.405625,-0.544122 0.52439,-0.734146 0.266126,-0.532252 0.123032,-0.289427 0.419512,-0.734146 0.06992,-0.104878 0.136492,-0.212064 0.209755,-0.314633 0.101599,-0.142238 0.229746,-0.266713 0.314634,-0.419512 0.09143,-0.164571 0.112896,-0.362957 0.209756,-0.52439 0.115169,-0.191949 0.291143,-0.341006 0.419512,-0.52439 0.402,-0.5742848 0.194527,-0.4470545 0.629268,-0.9439012 0.130225,-0.1488294 0.290811,-0.2693614 0.419511,-0.4195118 0.08203,-0.095702 0.139838,-0.2097559 0.209756,-0.3146338 0.06992,-0.1398373 0.109668,-0.2994059 0.209756,-0.4195118 0.08069,-0.096833 0.225505,-0.1206268 0.314634,-0.2097559 0.1236,-0.1235999 0.209756,-0.2796745 0.314634,-0.4195118 0.139837,-0.104878 0.287964,-0.1995295 0.419512,-0.3146338 0.297658,-0.2604515 0.543408,-0.5762548 0.839023,-0.8390236 0.167307,-0.1487171 0.349593,-0.2796745 0.52439,-0.4195118 0.113333,-0.090666 0.772876,-0.6272544 0.943902,-0.7341456 0.132578,-0.082862 0.282843,-0.1338291 0.419511,-0.2097559 0.178194,-0.098996 0.338815,-0.2302818 0.52439,-0.3146339 0.201284,-0.091493 0.42398,-0.1276406 0.629268,-0.2097559 0.14516,-0.058064 0.273123,-0.1548602 0.419512,-0.2097558 0.134963,-0.050611 0.282767,-0.059297 0.419511,-0.104878 0.357202,-0.1190671 0.694926,-0.2908375 1.04878,-0.4195118 0.20779,-0.07556 0.421477,-0.1341958 0.629267,-0.2097559 0.786322,-0.2859349 0.279265,-0.157194 1.153658,-0.4195118 0.138062,-0.041419 0.284548,-0.054267 0.419512,-0.1048779 0.146388,-0.054896 0.273123,-0.1548603 0.419511,-0.2097559 0.134964,-0.050611 0.284549,-0.054267 0.419512,-0.1048779 0.146389,-0.054896 0.271192,-0.160316 0.419512,-0.2097559 0.155439,-0.051813 1.037438,-0.1886251 1.153657,-0.2097559 0.175383,-0.031888 0.347508,-0.082768 0.52439,-0.104878 0.104068,-0.013009 0.209756,0 0.314634,0 0.174797,-0.034959 0.347923,-0.079668 0.52439,-0.1048779 0.255896,-0.036557 0.583127,0.036557 0.839023,0 0.10944,-0.015634 0.205194,-0.089244 0.314634,-0.104878 0.138432,-0.019776 0.279675,0 0.419512,0 0.244715,0 0.48943,0 0.734146,0 0.104878,0 0.211182,0.017242 0.314633,0 0.109047,-0.018174 0.204937,-0.091166 0.314634,-0.1048779 0.173447,-0.021681 0.349593,0 0.52439,0 0.174797,0 0.349593,0 0.52439,0 0.734145,0 1.468291,0 2.202437,0 0.454471,0 0.908942,0 1.363413,0 0.104878,0 0.209756,0 0.314634,0 0.104878,0 0.211183,-0.017242 0.314634,0 0.333273,0.055546 0.537706,0.298985 0.839023,0.4195118 1.05573,0.4222919 -0.222676,-0.081889 0.52439,0.1048779 0.07584,0.018959 0.135596,0.080158 0.209756,0.104878 0.06633,0.02211 0.139837,0 0.209756,0 0.244715,0 0.48943,0 0.734145,0"
       id="path4667"
       inkscape:connector-curvature="0" />
    <path
       style="fill:none;stroke:#000000;stroke-width:1px;stroke-linecap:butt;stroke-linejoin:miter;stroke-opacity:1"
       d="m 38.595084,21.62931 c 0.769105,0 1.53821,0 2.307315,0 0.174797,0 0.352988,-0.03428 0.52439,0 0.07665,0.01533 0.139837,0.06992 0.209756,0.104877 0.139837,0.06992 0.27581,0.14817 0.419512,0.209756 0.101612,0.04355 0.215754,0.05544 0.314633,0.104878 0.492461,0.246231 0.131948,0.157657 0.52439,0.314634 0.102644,0.04106 0.219837,0.048 0.314634,0.104878 0.08479,0.05087 0.127483,0.154907 0.209756,0.209756 0.02909,0.01939 0.07171,-0.01105 0.104878,0 0.14832,0.04944 0.279674,0.139837 0.419512,0.209756 0.279674,0.139837 0.559349,0.279674 0.839023,0.419512 0.06992,0.03496 0.139837,0.06992 0.209756,0.104878 0.06992,0.03496 0.147219,0.05798 0.209756,0.104878 0.0791,0.05933 0.130652,0.150428 0.209756,0.209755 0.06254,0.0469 0.139837,0.06992 0.209756,0.104878 0.139837,0.06992 0.279674,0.139838 0.419512,0.209756 0.06992,0.03496 0.144713,0.06152 0.209755,0.104878 0.08227,0.05485 0.115951,0.178488 0.209756,0.209756 0.239721,0.07991 0.174087,-0.105943 0.314634,0.104878 0.04336,0.06504 0.06152,0.144713 0.104878,0.209756 0.08901,0.133516 0.322589,0.290282 0.419512,0.419512 0.0469,0.06254 0.05797,0.147219 0.104878,0.209756 0.118656,0.158207 0.295972,0.265087 0.419512,0.419511 0.07874,0.09843 0.131014,0.216208 0.209756,0.314634 0.06177,0.07721 0.147986,0.132544 0.209755,0.209756 0.07874,0.09843 0.131015,0.216207 0.209756,0.314634 0.12354,0.154424 0.300856,0.261304 0.419512,0.419512 0.0469,0.06254 0.05797,0.147219 0.104878,0.209756 0.05933,0.0791 0.150428,0.130652 0.209756,0.209756 0.0469,0.06254 0.05797,0.147218 0.104878,0.209756 0.05933,0.0791 0.139837,0.139837 0.209756,0.209755 0.03496,0.03496 0.08277,0.06066 0.104878,0.104878 0.01563,0.03127 -0.03127,0.08924 0,0.104878 0.06254,0.03127 0.143425,-0.02211 0.209756,0 0.0469,0.01563 0.06992,0.06992 0.104878,0.104878 0.03496,0.03496 0.08277,0.06066 0.104878,0.104878 0.01563,0.03127 -0.01564,0.07361 0,0.104878 0.02211,0.04422 0.06992,0.06992 0.104878,0.104878 0.03496,0.03496 0.06374,0.07745 0.104877,0.104878 0.06504,0.04336 0.154481,0.0496 0.209756,0.104878 0.05528,0.05528 0.06152,0.144713 0.104878,0.209756 0.05485,0.08227 0.154907,0.127483 0.209756,0.209756 0.231063,0.05282 0.05544,0.215754 0.104878,0.314634 0.02211,0.04422 0.08277,0.06066 0.104878,0.104878 0.01563,0.03127 -0.01563,0.07361 0,0.104877 0.129598,0.259196 0.104878,-0.0362 0.104878,0.209756"
       id="path4669"
       inkscape:connector-curvature="0" />
    <path
       style="fill:none;stroke:#000000;stroke-width:1px;stroke-linecap:butt;stroke-linejoin:miter;stroke-opacity:1"
       d="m 24.121928,21.839065 c -0.594309,0 -1.188617,0 -1.782925,0 -0.06703,0 -0.599015,-0.01513 -0.629268,0 -0.08844,0.04422 -0.121315,0.165536 -0.209756,0.209756 -0.06254,0.03127 -0.139837,0 -0.209756,0 -0.104878,0 -0.211183,-0.01724 -0.314634,0 -0.109047,0.01817 -0.206229,0.0832 -0.314634,0.104878 -0.06856,0.01371 -0.141195,-0.01371 -0.209755,0 -0.108405,0.02168 -0.209756,0.06992 -0.314634,0.104878 -0.209756,0.06992 -0.419512,0.139837 -0.629268,0.209756 -0.104878,0.03496 -0.21199,0.06382 -0.314634,0.104878 -0.07258,0.02903 -0.133918,0.08592 -0.209756,0.104878 -0.06783,0.01696 -0.139837,0 -0.209756,0 -0.03496,0 -0.07579,-0.01939 -0.104877,0 -0.08227,0.05485 -0.121316,0.165535 -0.209756,0.209756 -0.06254,0.03127 -0.141925,-0.01696 -0.209756,0 -0.07584,0.01896 -0.137176,0.07585 -0.209756,0.104878 -0.102644,0.04106 -0.21199,0.06382 -0.314634,0.104878 -0.145161,0.05806 -0.274351,0.151691 -0.419512,0.209756 -0.102644,0.04106 -0.207383,0.07806 -0.314634,0.104878 -0.03392,0.0085 -0.07579,-0.01939 -0.104878,0 -0.08227,0.05485 -0.121315,0.165535 -0.209755,0.209756 -0.06254,0.03127 -0.143426,-0.02211 -0.209756,0 -0.0469,0.01563 -0.06992,0.06992 -0.104878,0.104877 -0.06992,0.06992 -0.139838,0.139838 -0.209756,0.209756 -0.03496,0.03496 -0.06992,0.06992 -0.104878,0.104878 -0.03496,0.03496 -0.08924,0.05797 -0.104878,0.104878 -0.02211,0.06633 0.02211,0.143426 0,0.209756 -0.03435,0.103058 -0.259566,0.173044 -0.314634,0.209756 -0.144281,0.09619 -0.107865,0.161797 -0.209756,0.314634 -0.02742,0.04114 -0.06992,0.06992 -0.104878,0.104878 -0.104878,0.104878 -0.209756,0.209756 -0.314634,0.314634 -0.06992,0.06992 -0.154907,0.127483 -0.209756,0.209756 -0.08672,0.130085 -0.123032,0.289426 -0.209755,0.419511 -0.137122,0.205683 -0.387268,0.318708 -0.52439,0.52439 -0.06132,0.09198 -0.04355,0.22265 -0.104878,0.314634 -0.08227,0.123409 -0.221979,0.198815 -0.314634,0.314634 -0.04883,0.06104 -0.04384,0.160922 -0.104878,0.209756 -0.294206,0.235364 -0.444146,0.110976 -0.629268,0.419511 -0.05688,0.0948 -0.048,0.219838 -0.104878,0.314634 -0.05087,0.08479 -0.150427,0.130652 -0.209755,0.209756 -0.0469,0.06254 -0.05798,0.147219 -0.104878,0.209756 -0.05933,0.0791 -0.150428,0.130652 -0.209756,0.209756 -0.0469,0.06254 -0.06152,0.144713 -0.104878,0.209756 -0.05485,0.08227 -0.154907,0.127483 -0.209756,0.209756 -0.04336,0.06504 -0.06152,0.144713 -0.104878,0.209756 -0.08227,0.123409 -0.225642,0.195978 -0.314634,0.314633 -0.0469,0.06254 -0.06992,0.139838 -0.104878,0.209756 -0.06992,0.139838 -0.139837,0.279675 -0.209756,0.419512 -0.06992,0.139837 -0.123032,0.289427 -0.209756,0.419512 -0.05485,0.08227 -0.139837,0.139837 -0.209755,0.209756 -0.06992,0.104878 -0.147219,0.205194 -0.209756,0.314634 -0.07757,0.135743 -0.129319,0.285449 -0.209756,0.419511 -0.02544,0.04239 -0.07944,0.06248 -0.104878,0.104878 -0.08044,0.134063 -0.132188,0.283769 -0.209756,0.419512 -0.06254,0.10944 -0.1472189,0.205194 -0.209756,0.314634 -0.8729538,1.527669 0.273676,-0.442475 -0.3146339,0.734146 -0.05637,0.11274 -0.1533856,0.201893 -0.2097558,0.314634 -0.04944,0.09888 -0.069919,0.209755 -0.104878,0.314633 -0.1433676,0.430103 -0.3180753,0.923856 -0.4195118,1.363414 -0.047816,0.207203 -0.043774,0.425586 -0.1048779,0.629267 -0.044925,0.14975 -0.1462591,0.276644 -0.2097559,0.419512 -0.07646,0.172036 -0.1436528,0.348115 -0.2097559,0.52439 -0.038817,0.103512 -0.06382,0.21199 -0.104878,0.314634 -0.058064,0.14516 -0.1603159,0.271192 -0.2097559,0.419511 -0.011055,0.03317 0.011055,0.07171 0,0.104878 -0.030864,0.09259 -0.2593069,0.546278 -0.3146338,0.629268 -0.027424,0.04114 -0.082768,0.06066 -0.1048779,0.104878 -0.015634,0.03127 0.015634,0.07361 0,0.104878 -0.02211,0.04422 -0.082768,0.06066 -0.104878,0.104878 -0.031268,0.06254 0.038784,0.15158 0,0.209756 -0.054849,0.08227 -0.1549072,0.127483 -0.2097559,0.209756 -0.019392,0.02909 0.011055,0.07171 0,0.104878 -0.2971027,0.594205 0.039086,-0.156343 -0.1048779,0.419511 -0.037919,0.151675 -0.1516917,0.274352 -0.2097559,0.419512 -0.041058,0.102644 -0.078065,0.207384 -0.104878,0.314634 -0.00848,0.03392 0.015634,0.07361 0,0.104878 -0.02211,0.04422 -0.089244,0.05797 -0.1048779,0.104878 -0.043418,0.130253 0.034474,0.386495 0,0.52439 -0.018959,0.07584 -0.085919,0.133918 -0.104878,0.209756 -0.016958,0.06783 0,0.139837 0,0.209756 0,0.03496 0.019392,0.07579 0,0.104877 -0.2344758,0.351714 -0.2097559,0.06943 -0.2097559,0.314634"
       id="path4671"
       inkscape:connector-curvature="0" />
    <path
       style="fill:none;stroke:#000000;stroke-width:1px;stroke-linecap:butt;stroke-linejoin:miter;stroke-opacity:1"
       d="m 6.5024327,41.346364 c 0,0.174796 -0.037919,0.353755 0,0.524389 0.033915,0.15262 0.1462591,0.276644 0.2097559,0.419512 0.07646,0.172036 0.1398372,0.349593 0.2097559,0.52439 0.1048779,0.174796 0.2234711,0.342064 0.3146338,0.52439 0.1190672,0.238134 0.1906325,0.498543 0.3146339,0.734145 0.1522115,0.289202 0.8327403,1.470611 1.1536574,1.887803 0.1965152,0.25547 0.4279228,0.482465 0.6292677,0.734146 0.078741,0.09843 0.1277252,0.218931 0.2097558,0.314634 0.2252256,0.262763 0.4894309,0.48943 0.7341459,0.734145 0.06992,0.06992 0.147986,0.132544 0.209756,0.209756 0.07874,0.09843 0.131014,0.216207 0.209756,0.314634 0.06177,0.07721 0.154907,0.127483 0.209755,0.209756 0.07581,0.113709 0.276474,0.626867 0.419512,0.734146 0.05593,0.04195 0.144838,-0.02597 0.209756,0 0.117032,0.04681 0.206549,0.144904 0.314634,0.209755 0.201094,0.120657 0.425652,0.198283 0.629268,0.314634 0.71863,0.410646 -0.02688,0.0061 0.524389,0.419512 0.06254,0.0469 0.139838,0.06992 0.209756,0.104878 0.594206,0.297103 -0.156343,-0.03909 0.419512,0.104878 0.07584,0.01896 0.133919,0.08592 0.209756,0.104878 0.06783,0.01696 0.141195,-0.01371 0.209756,0 0.18674,-0.210627 0.314634,0.174796 0.419512,0.209756 0.04797,0.01599 0.372843,-0.02333 0.419511,0 0.04422,0.02211 0.06066,0.08277 0.104878,0.104878 0.03127,0.01563 0.08924,-0.03127 0.104878,0 0.03127,0.06254 0,0.139837 0,0.209756"
       id="path4673"
       inkscape:connector-curvature="0" />
    <path
       style="fill:none;stroke:#000000;stroke-width:1px;stroke-linecap:butt;stroke-linejoin:miter;stroke-opacity:1"
       d="m 41.217033,16.700046 c -0.180795,0 -0.422511,-0.09888 -0.52439,0.104878 -0.01563,0.03127 0.03127,0.08924 0,0.104878 -0.06254,0.03127 -0.147218,-0.03127 -0.209756,0 -0.03127,0.01563 0.03127,0.08924 0,0.104878 -0.06254,0.03127 -0.147218,-0.03127 -0.209755,0 -0.03127,0.01563 0.01563,0.07361 0,0.104878 -0.02211,0.04422 -0.08277,0.06066 -0.104878,0.104878 -0.01563,0.03127 0.01563,0.07361 0,0.104878 -0.02211,0.04422 -0.06992,0.06992 -0.104878,0.104878 -0.03496,0.03496 -0.06992,0.06992 -0.104878,0.104878 -0.337597,0.337597 0.203758,-0.154318 -0.314634,0.104878 -0.03127,0.01563 0.02472,0.08016 0,0.104878 -0.02472,0.02472 -0.06992,0 -0.104878,0 0,0.06992 0.02211,0.143425 0,0.209755 -0.01892,0.05676 -0.268699,0.245732 -0.314634,0.314634 -0.04336,0.06504 -0.06992,0.139838 -0.104878,0.209756 -0.03496,0.06992 -0.08592,0.133919 -0.104878,0.209756 -0.01696,0.06783 0.01696,0.141925 0,0.209756 -0.01896,0.07584 -0.08592,0.133918 -0.104878,0.209756 -0.01696,0.06783 0.01371,0.141195 0,0.209756 -0.02168,0.108404 -0.0832,0.206229 -0.104878,0.314634 -0.01371,0.06856 0,0.139837 0,0.209755 0,0.244716 0,0.489431 0,0.734146 0,0.03496 0,0.06992 0,0.104878 0,0.03496 -0.01563,0.07361 0,0.104878 0.02211,0.04422 0.08277,0.06066 0.104878,0.104878 0.01563,0.03127 -0.03127,0.08924 0,0.104878 0.06254,0.03127 0.143425,-0.02211 0.209756,0 0.09381,0.03127 0.121315,0.165535 0.209756,0.209756 0.03192,0.01596 0.267401,0 0.314634,0 0.209756,0 0.419512,0 0.629268,0 0.05603,0 0.494373,0.01501 0.524389,0 0.04422,-0.02211 0.06374,-0.07745 0.104878,-0.104878 0.06504,-0.04336 0.144714,-0.06152 0.209756,-0.104878 0.04114,-0.02742 0.06066,-0.08277 0.104878,-0.104878 0.06254,-0.03127 0.147219,0.03127 0.209756,0 0.02008,-0.01004 0.409474,-0.399436 0.419512,-0.419512 0.01563,-0.03127 -0.01563,-0.07361 0,-0.104878 0.04422,-0.08844 0.154907,-0.127483 0.209756,-0.209756 0.157666,-0.2365 0.107442,-0.322328 0.209756,-0.629267 0.02472,-0.07416 0.08016,-0.135596 0.104877,-0.209756 0.04558,-0.136744 0.08118,-0.277332 0.104878,-0.419512 0.02299,-0.137935 -0.03392,-0.28385 0,-0.419512 0.01896,-0.07584 0.08592,-0.133918 0.104878,-0.209756 0.01696,-0.06783 -0.01696,-0.141925 0,-0.209756 0.01896,-0.07584 0.09203,-0.132648 0.104878,-0.209756 0.03448,-0.206901 0,-0.419511 0,-0.629267 0,-0.03997 0.01018,-0.51421 0,-0.52439 -0.02472,-0.02472 -0.08924,0.03127 -0.104878,0 -0.03127,-0.06254 0.03127,-0.147219 0,-0.209756 -0.01563,-0.03127 -0.07361,0.01563 -0.104878,0 -0.04422,-0.02211 -0.06066,-0.08277 -0.104878,-0.104878 -0.03127,-0.01563 -0.07361,0.01563 -0.104877,0 -0.04422,-0.02211 -0.06066,-0.08277 -0.104878,-0.104878 -0.03127,-0.01563 -0.06992,0 -0.104878,0 -0.03496,0 -0.06992,0 -0.104878,0 -0.03496,0 -0.06992,0 -0.104878,0 -0.03496,0 -0.07579,-0.01939 -0.104878,0 -0.186254,0.124169 -0.349593,0.279675 -0.52439,0.419512 z"
       id="path4675"
       inkscape:connector-curvature="0" />
    <path
       style="fill:none;stroke:#000000;stroke-width:1px;stroke-linecap:butt;stroke-linejoin:miter;stroke-opacity:1"
       d="m 23.807294,18.273215 c -0.384553,0 -0.769105,0 -1.153658,0 -0.564082,0 -0.09852,-0.07416 -0.524389,0.209756 -0.695599,0.463732 -0.235638,0.02588 -0.52439,0.314634 -0.03496,0.03496 -0.08277,0.06066 -0.104878,0.104878 -0.01379,0.02758 0,0.364669 0,0.419512 0,0.174796 0,0.349593 0,0.524389 0,0.03496 0,0.06992 0,0.104878 0,0.03496 -0.01563,0.07361 0,0.104878 0.02211,0.04422 0.08277,0.06066 0.104878,0.104878 0.01563,0.03127 -0.01563,0.07361 0,0.104878 0.02801,0.05601 0.259419,0.25942 0.314634,0.314634 0.03496,0.03496 0.06992,0.06992 0.104878,0.104878 0.03496,0.03496 0.08277,0.06066 0.104878,0.104878 0.01563,0.03127 -0.03127,0.08924 0,0.104878 0.06254,0.03127 0.141925,-0.01696 0.209756,0 0.486901,0.243451 -0.06037,0.0089 0.419511,0.104878 0.216809,0.04336 0.41246,0.166394 0.629268,0.209756 0.137122,0.02742 0.28385,-0.03392 0.419512,0 0.07584,0.01896 0.133918,0.08592 0.209756,0.104878 0.06783,0.01696 0.139837,0 0.209756,0 0.174796,0 0.349593,0 0.524389,0 0.139838,0 0.279675,0 0.419512,0 0.03496,0 0.08924,0.03127 0.104878,0 0.279675,-0.559349 -0.349593,0.06992 0.209756,-0.209756 0.0051,-0.0025 0,-0.74952 0,-0.839024 0,-0.259196 0.04944,-0.160316 -0.104878,-0.314634 -0.03496,-0.03496 -0.08924,-0.05797 -0.104878,-0.104878 -0.02211,-0.06633 0.01696,-0.141924 0,-0.209755 -0.01896,-0.07584 -0.06992,-0.139838 -0.104878,-0.209756 -0.03496,-0.06992 -0.06152,-0.144714 -0.104878,-0.209756 -0.02742,-0.04114 -0.07745,-0.06374 -0.104878,-0.104878 -0.04336,-0.06504 -0.06152,-0.144714 -0.104878,-0.209756 -0.02742,-0.04114 -0.06992,-0.06992 -0.104878,-0.104878 -0.03496,-0.03496 -0.05797,-0.08924 -0.104878,-0.104878 -0.06633,-0.02211 -0.143425,0.02211 -0.209755,0 -0.0469,-0.01563 -0.06374,-0.07745 -0.104878,-0.104878 -0.169611,-0.113073 -0.349594,-0.209756 -0.52439,-0.314634 z"
       id="path4677"
       inkscape:connector-curvature="0" />
    <path
       style="fill:none;stroke:#000000;stroke-width:1px;stroke-linecap:butt;stroke-linejoin:miter;stroke-opacity:1"
       d="m 16.990227,8.5195662 c -0.559349,0 -1.118698,0 -1.678047,0 -0.139837,0 -0.28053,-0.015442 -0.419512,0 -0.31403,-0.07579 -0.552967,0.1739989 -0.839023,0.2097559 -0.503619,0.062952 -0.758995,-0.08245 -1.258536,0.104878 -0.35806,0.1342726 -0.429864,0.2293361 -0.734145,0.4195117 -0.199236,0.221784 -0.492461,0.2745007 -0.734146,0.4195118 -0.108085,0.064851 -0.201893,0.1533857 -0.314634,0.2097559 -0.09888,0.04944 -0.215754,0.055438 -0.314633,0.104878 -0.04422,0.022111 -0.06992,0.069914 -0.104878,0.1048775 -0.06992,0.06992 -0.147987,0.132544 -0.209756,0.209756 -0.6640182,0.830023 0.361362,-0.299231 -0.52439,0.734146 -0.096525,0.112613 -0.2181086,0.202021 -0.3146339,0.314634 -0.025481,0.02973 -0.3881646,0.561155 -0.5243897,0.629267 -0.062537,0.03127 -0.1603159,-0.04944 -0.2097559,0 -0.110551,0.110552 -0.1230325,0.289427 -0.2097559,0.419512 -0.054849,0.08227 -0.1464545,0.133795 -0.2097559,0.209756 -0.111902,0.134283 -0.2027318,0.285229 -0.3146338,0.419512 -0.1868031,0.224164 -0.2703598,0.250158 -0.5243897,0.419512 -0.104878,0.06992 -0.2255048,0.120626 -0.3146339,0.209756 -0.055275,0.05527 -0.049602,0.15448 -0.1048779,0.209755 -0.055276,0.05528 -0.1398373,0.06992 -0.2097559,0.104878 -0.104878,0.104878 -0.2196818,0.200692 -0.3146339,0.314634 -0.080694,0.09683 -0.1364922,0.212065 -0.2097559,0.314634 -0.5160628,0.722488 -0.1194841,0.124353 -0.7341456,0.943902 -0.3320089,0.442678 -0.099052,0.237918 -0.5243897,0.734145 -0.7473925,0.747393 0.059668,-0.100804 -0.5243897,0.629268 -0.4102901,0.512863 -0.014426,-0.186674 -0.5243898,0.629268 -0.082861,0.132578 -0.1321881,0.283768 -0.2097559,0.419511 -0.2268994,0.397074 -0.5288964,0.743159 -0.7341456,1.153658 -0.034959,0.06992 -0.092027,0.132648 -0.1048779,0.209756 -0.022989,0.137934 0.017345,0.280754 0,0.419512 -0.044138,0.3531 -0.2026083,0.712702 -0.3146339,1.048779 -0.034959,0.104878 -0.083197,0.20623 -0.1048779,0.314634 -0.013712,0.06856 0,0.139837 0,0.209756 0,0.279674 0,0.559349 0,0.839023 0,0.279675 0,0.559349 0,0.839024 0,0.174796 -0.019303,0.350662 0,0.52439 0.015918,0.143259 0.086999,0.276483 0.1048779,0.419511 0.017345,0.138758 -0.019776,0.28108 0,0.419512 0.035137,0.245958 0.2239856,0.522633 0.3146339,0.734146 0.043548,0.101612 0.06382,0.21199 0.1048779,0.314634 0.058064,0.14516 0.160316,0.271192 0.2097559,0.419511 0.011055,0.03317 -0.027967,0.0839 0,0.104878 0.3432819,0.257462 0.4569791,0.187286 0.8390236,0.314634 0.1786007,0.05953 0.341749,0.164096 0.5243897,0.209756 0.1017466,0.02544 0.2122533,-0.02275 0.3146338,0 0.2158371,0.04796 0.4195118,0.139837 0.6292677,0.209756 0.104878,0.03496 0.2062296,0.0832 0.3146339,0.104878 0.1371217,0.02742 0.2838497,-0.03392 0.4195117,0 0.075837,0.01896 0.135596,0.08016 0.2097559,0.104878 0.059172,0.01972 0.2457178,0 0.3146339,0 0.2097559,0 0.4195118,0 0.6292677,0"
       id="path4683"
       inkscape:connector-curvature="0" />
    <path
       style="fill:none;stroke:#000000;stroke-width:1px;stroke-linecap:butt;stroke-linejoin:miter;stroke-opacity:1"
       d="m 49.921903,7.9951765 c 0.594308,0 1.188616,0 1.782925,0 0.244715,0 0.490151,-0.018769 0.734145,0 0.212023,0.016309 0.419092,0.072543 0.629268,0.1048779 1.533457,0.2359165 -0.01952,-0.06253 1.363413,0.3146339 0.171977,0.046903 0.356864,0.043959 0.52439,0.1048779 0.220395,0.080144 0.404644,0.2472467 0.629268,0.3146339 0.13394,0.040182 0.289676,-0.051934 0.419512,0 0.234064,0.093626 0.413097,0.2898098 0.629267,0.4195117 0.134063,0.080438 0.289427,0.1230325 0.419512,0.2097559 0.572404,0.3816025 0.526249,0.4736239 1.048779,0.9439013 0.166386,0.149747 0.366105,0.261227 0.52439,0.419512 0.158285,0.158285 0.279675,0.349593 0.419512,0.52439 0.139837,0.174796 0.279674,0.349593 0.419512,0.52439 0.739007,0.923759 0.164471,0.130508 0.629267,0.943901 0.06254,0.10944 0.158564,0.19945 0.209756,0.314634 0.179071,0.402909 0.245873,0.853377 0.419512,1.258535 0.09238,0.215553 0.227538,0.411527 0.314634,0.629268 0.04106,0.102644 0.06382,0.21199 0.104878,0.314634 0.08574,0.21436 0.211344,0.422687 0.314634,0.629267 0.03496,0.06992 0.07585,0.137176 0.104878,0.209756 0.04106,0.102644 0.048,0.219837 0.104878,0.314634 0.05087,0.08479 0.173032,0.117948 0.209756,0.209756 0.03895,0.09738 -0.02275,0.212253 0,0.314634 0.04796,0.215837 0.166394,0.412459 0.209755,0.629268 0.254876,1.274377 -0.352328,-0.580119 0.104878,0.943901 0.144357,0.481188 0.212736,0.431433 0.314634,0.839024 0.04323,0.172936 0.06164,0.351454 0.104878,0.524389 0.02681,0.107251 0.08924,0.205194 0.104878,0.314634 0.01978,0.138432 -0.02299,0.281577 0,0.419512 0.01285,0.07711 0.08955,0.133103 0.104878,0.209756 0.02057,0.102841 0,0.209756 0,0.314634 0,0.104878 0,0.209756 0,0.314634 0,0.174796 0.03662,0.353473 0,0.524389 -0.191593,0.8941 -0.410623,1.078602 -0.839024,1.887803 -0.146301,0.276348 -0.251638,0.575223 -0.419511,0.839024 -0.07963,0.125132 -0.218109,0.202021 -0.314634,0.314634 -0.113756,0.132715 -0.191034,0.295912 -0.314634,0.419512 -0.05528,0.05528 -0.147219,0.05797 -0.209756,0.104878 -0.0791,0.05933 -0.124967,0.158882 -0.209756,0.209755 -0.569414,0.341649 -0.134002,0.0335 -0.419512,0.104878 -0.10725,0.02681 -0.208336,0.07451 -0.314633,0.104878 -0.182376,0.05211 -0.785304,0.195338 -0.943902,0.209756 -0.208894,0.01899 -0.419512,0 -0.629268,0 -0.244715,0 -0.48943,0 -0.734145,0 -0.279675,0 -0.559349,0 -0.839024,0 -0.139837,0 -0.281577,0.02299 -0.419512,0 -0.109046,-0.01817 -0.206229,-0.0832 -0.314633,-0.104878 -0.137122,-0.02742 -0.279675,0 -0.419512,0"
       id="path4685"
       inkscape:connector-curvature="0" />
    <path
       style="fill:none;stroke:#000000;stroke-width:1px;stroke-linecap:butt;stroke-linejoin:miter;stroke-opacity:1"
       d="m 20.4512,13.658586 c 0.188862,-0.615308 0.660752,0.0367 0.943901,-0.104878 0.08844,-0.04422 0.117948,-0.173033 0.209756,-0.209756 0.09738,-0.03895 0.211793,0.02057 0.314634,0 0.07665,-0.01533 0.133918,-0.08592 0.209756,-0.104878 0.06783,-0.01696 0.147219,0.03127 0.209756,0 0.03127,-0.01563 -0.01564,-0.07361 0,-0.104878 0.218238,-0.436477 -0.0072,0.112118 0.209756,-0.104878 0.02472,-0.02472 -0.03127,-0.08924 0,-0.104878 0.06254,-0.03127 0.139837,0 0.209755,0 0.03496,0 0.08016,0.02472 0.104878,0 0.02472,-0.02472 -0.02472,-0.08016 0,-0.104878 0.02472,-0.02472 0.07361,0.01563 0.104878,0 0.04422,-0.02211 0.06066,-0.08277 0.104878,-0.104878 0.06254,-0.03127 0.178488,0.06254 0.209756,0 0,-0.594308 -0.06992,-0.03496 0.104878,-0.209756 0.02472,-0.02472 -0.03127,-0.08924 0,-0.104878 0.06254,-0.03127 0.139837,0 0.209756,0 0.03496,0 0.08016,0.02472 0.104878,0 0.02472,-0.02472 -0.02472,-0.08016 0,-0.104878 0.02472,-0.02472 0.07361,0.01563 0.104878,0 0.04422,-0.02211 0.06066,-0.08277 0.104878,-0.104878 0.03127,-0.01563 0.08924,0.03127 0.104878,0 0.03127,-0.06254 -0.04944,-0.160316 0,-0.209756 0.04944,-0.04944 0.143425,0.02211 0.209756,0 0.0469,-0.01563 0.06066,-0.08277 0.104878,-0.104877 0.06254,-0.03127 0.15158,0.03878 0.209756,0 0.08227,-0.05485 0.127482,-0.154908 0.209755,-0.209756 0.02909,-0.01939 0.06992,0 0.104878,0 0.03496,0 0.06992,0 0.104878,0 0.174797,0 0.349593,0 0.52439,0 0.314634,0 0.629268,0 0.943902,0 0.08782,0 0.444633,-0.01994 0.524389,0 0.07584,0.01896 0.135596,0.08016 0.209756,0.104878 0.03317,0.01106 0.07171,-0.01106 0.104878,0 0.07416,0.02472 0.135596,0.08016 0.209756,0.104878 0.03317,0.01106 0.06992,0 0.104878,0 0.139837,0 0.281577,-0.02299 0.419512,0 0.379837,0.06331 0.07488,0.08988 0.314634,0.209755 0.05458,0.245276 0.296806,0.06398 0.419511,0.104878 0.14832,0.04944 0.271192,0.160316 0.419512,0.209756 0.03317,0.01105 0.06992,0 0.104878,0 0.06992,0 0.139837,0 0.209756,0 0.244715,0 0.48943,0 0.734146,0 0.349593,0 0.699186,0 1.048779,0 0.104878,0 0.210566,0.01301 0.314634,0 0.176882,-0.02211 0.351454,-0.06164 0.52439,-0.104878 0.10725,-0.02681 0.208336,-0.07451 0.314634,-0.104878 0.138594,-0.0396 0.287025,-0.0481 0.419511,-0.104878 0.115856,-0.04965 0.201894,-0.153385 0.314634,-0.209755 0.867985,-0.433993 -0.357046,0.340081 0.734146,-0.314634 0.04239,-0.02544 0.06066,-0.08277 0.104878,-0.104878 0.09888,-0.04944 0.211989,-0.06382 0.314634,-0.104878 0.14516,-0.05806 0.279674,-0.139837 0.419511,-0.209756 0.06992,-0.03496 0.133919,-0.08592 0.209756,-0.104878 0.06783,-0.01696 0.143425,0.02211 0.209756,0 0.0469,-0.01563 0.05797,-0.08924 0.104878,-0.104878 0.06633,-0.02211 0.143425,0.02211 0.209756,0 0.0469,-0.01563 0.06066,-0.08277 0.104878,-0.104878 0.770847,-0.256949 0.05341,0.03431 0.419512,-0.209756 0.115354,-0.0769 0.556989,-0.242355 0.629267,-0.314634 0.05528,-0.05527 0.03984,-0.166394 0.104878,-0.209756 0.05818,-0.03878 0.143426,0.02211 0.209756,0 0.0469,-0.01563 0.05797,-0.08924 0.104878,-0.1048775 0.06633,-0.02211 0.139837,0 0.209756,0 0.110438,0 0.437478,0.021727 0.52439,0 0.10725,-0.026813 0.207383,-0.078065 0.314634,-0.104878 0.03392,-0.00848 0.07171,0.011055 0.104878,0 0.07416,-0.02472 0.133918,-0.085919 0.209755,-0.1048779 0.182094,-0.045523 0.447174,0.045523 0.629268,0 0.07584,-0.018959 0.133919,-0.085919 0.209756,-0.104878 0.06783,-0.016958 0.139837,0 0.209756,0 0.209756,0 0.419512,0 0.629268,0 0.454471,0 0.908942,0 1.363413,0 0.06992,0 0.160316,-0.04944 0.209756,0 0.04944,0.04944 -0.04944,0.160316 0,0.2097559 0.209756,0.2097555 0.157317,-0.1048779 0.314634,0 0.08227,0.054849 0.127483,0.1549075 0.209756,0.2097555 0.02909,0.01939 0.07171,-0.01105 0.104878,0 0.08463,0.02821 0.561157,0.263552 0.629267,0.314634 0.302419,0.226814 0.135979,0.151529 0.314634,0.419512 0.08067,0.121013 0.233959,0.193621 0.314634,0.314634 0.04336,0.06504 0.06992,0.139837 0.104878,0.209756"
       id="path4687"
       inkscape:connector-curvature="0" />
    <path
       style="fill:none;stroke:#000000;stroke-width:1px;stroke-linecap:butt;stroke-linejoin:miter;stroke-opacity:1"
       d="m 44.992639,34.319541 c 1.26044,1.26044 -0.169365,-0.224214 0.629268,0.734146 0.09495,0.113942 0.232361,0.191224 0.314634,0.314634 0.06132,0.09198 0.048,0.219837 0.104878,0.314633 0.05087,0.08479 0.165535,0.121315 0.209755,0.209756 0.03127,0.06254 -0.03127,0.147219 0,0.209756 0.08441,0.168819 0.400887,0.320709 0.52439,0.419512 0.26859,0.214872 0.465556,0.519274 0.734146,0.734146 0.09843,0.07874 0.225505,0.120626 0.314634,0.209755 0.0067,0.0067 0.196732,0.399977 0.209756,0.419512 0.200073,0.30011 0.01965,-0.160632 0.209755,0.314634 0.04106,0.102644 0.06382,0.21199 0.104878,0.314634 0.02903,0.07258 0.08592,0.133918 0.104878,0.209756 0.01696,0.06783 -0.01696,0.141925 0,0.209756 0.01896,0.07584 0.08592,0.133918 0.104878,0.209756 0.01696,0.06783 -0.01371,0.141195 0,0.209756 0.02168,0.108404 0.0867,0.205586 0.104878,0.314633 0.01724,0.103451 0,0.209756 0,0.314634 0,0.104878 0,0.209756 0,0.314634 0,0.52439 0,1.04878 0,1.573169 0,1.468292 0,2.936583 0,4.404874 0,0.594308 0,1.188617 0,1.782925 0,0.174797 0,0.349593 0,0.52439 0,0.06992 0.01696,0.141925 0,0.209756 -0.01896,0.07584 -0.08592,0.133918 -0.104878,0.209756 -0.01946,0.07785 0.03219,0.38732 0,0.419511 -0.02472,0.02472 -0.06992,0 -0.104878,0"
       id="path4689"
       inkscape:connector-curvature="0" />
    <path
       style="fill:none;stroke:#000000;stroke-width:1px;stroke-linecap:butt;stroke-linejoin:miter;stroke-opacity:1"
       d="m 16.675594,34.739053 c 0.314633,0 0.629267,0 0.943901,0 0.104878,0 0.211793,0.02057 0.314634,0 0.07665,-0.01533 0.137175,-0.07585 0.209756,-0.104878 0.117236,-0.04689 0.6357,-0.216189 0.734145,-0.314634 0.05528,-0.05528 0.0496,-0.15448 0.104878,-0.209756 0.110551,-0.110551 0.294438,-0.11595 0.419512,-0.209756 0.0791,-0.05933 0.127483,-0.154907 0.209756,-0.209756 0.02909,-0.01939 0.07361,0.01564 0.104878,0 0.04422,-0.02211 0.06066,-0.08277 0.104878,-0.104878 0.03127,-0.01563 0.07361,0.01564 0.104878,0 0.04422,-0.02211 0.06992,-0.06992 0.104878,-0.104877 0.06992,-0.06992 0.132543,-0.147987 0.209756,-0.209756 0.09843,-0.07874 0.216207,-0.131015 0.314634,-0.209756 0.07721,-0.06177 0.139837,-0.139838 0.209755,-0.209756 0.209756,-0.209756 0.419512,-0.419512 0.629268,-0.629268 0.139837,-0.139837 0.279675,-0.279674 0.419512,-0.419512 0.06992,-0.06992 0.150428,-0.130652 0.209756,-0.209756 0.0469,-0.06254 0.0496,-0.15448 0.104878,-0.209755 0.05528,-0.05528 0.15448,-0.0496 0.209756,-0.104878 0.04944,-0.04944 -0.04944,-0.160316 0,-0.209756 0.02472,-0.02472 0.08924,0.03127 0.104878,0 0.03127,-0.06254 -0.03127,-0.147219 0,-0.209756 0.01563,-0.03127 0.06992,0 0.104878,0 0,-0.06992 0,-0.139837 0,-0.209756 0,-0.03496 0,0.06992 0,0.104878 0,0.06992 0,0.139837 0,0.209756 1.017697,0 0.414622,0.05935 1.153657,-0.104878 0.174013,-0.03867 0.351454,-0.06164 0.52439,-0.104878 0.246908,-0.06173 0.485287,-0.156429 0.734145,-0.209756 0.241713,-0.0518 0.493277,-0.04929 0.734146,-0.104878 0.736404,-0.169939 0.571276,-0.287489 1.363413,-0.419512 0.172419,-0.02874 0.349593,0 0.52439,0 0.349593,0 0.699186,0 1.048779,0 1.328454,0 2.656908,0 3.985362,0 1.223576,0 2.447153,0 3.670729,0 0.349593,0 0.699186,0 1.048779,0 0.244715,0 0.490927,-0.02702 0.734146,0 0.177168,0.01969 0.347016,0.08714 0.524389,0.104878 1.901066,0 -0.442204,-0.05528 0.839024,0.104878 0.173447,0.02168 0.349593,0 0.52439,0 0.104878,0 0.216433,-0.03683 0.314634,0 0.190867,0.07157 0.338112,0.231844 0.524389,0.314634 0.131718,0.05854 0.284549,0.05427 0.419512,0.104878 0.146388,0.0549 0.276644,0.146259 0.419512,0.209756 0.344071,0.15292 0.712007,0.251125 1.048779,0.419512 0.182326,0.09116 0.346196,0.215637 0.52439,0.314633 0.136668,0.07593 0.276644,0.14626 0.419512,0.209756 0.172036,0.07646 0.35135,0.135596 0.52439,0.209756 0.07185,0.03079 0.147218,0.05797 0.209755,0.104878 0.0791,0.05933 0.130652,0.150428 0.209756,0.209756 0.06254,0.0469 0.154481,0.0496 0.209756,0.104878 0.05528,0.05528 0.0496,0.15448 0.104878,0.209756 0.05528,0.05528 0.144714,0.06152 0.209756,0.104878 0.144281,0.09619 0.107865,0.161797 0.209756,0.314634 0.02742,0.04114 0.06992,0.06992 0.104878,0.104878 0.03496,0.06992 0.06152,0.144713 0.104878,0.209756 0.02742,0.04114 0.08924,0.05798 0.104878,0.104878 0.02211,0.06633 -0.01696,0.141924 0,0.209755 0.01896,0.07584 0.08016,0.135596 0.104878,0.209756 0.03146,0.09439 -0.03146,0.220244 0,0.314634 0.01563,0.0469 0.08277,0.06066 0.104878,0.104878 0.01563,0.03127 0,0.06992 0,0.104878 0,0.03496 0,0.06992 0,0.104878"
       id="path4691"
       inkscape:connector-curvature="0" />
    <path
       style="fill:none;stroke:#000000;stroke-width:1px;stroke-linecap:butt;stroke-linejoin:miter;stroke-opacity:1"
       d="m 20.031688,34.214663 c 0,0.25 0,0.903658 0,1.153658 0,0.139837 -0.01392,0.280368 0,0.419511 0.02213,0.221301 0.125454,0.795876 0.209756,1.04878 0.05953,0.178601 0.139837,0.349593 0.209756,0.52439 0.06556,0.163891 0.293533,0.77593 0.419511,0.943901 0.162549,0.216732 0.597678,0.589338 0.839024,0.734146 0.201094,0.120656 0.422785,0.20345 0.629268,0.314634 0.248161,0.133625 0.478737,0.300321 0.734145,0.419511 0.27067,0.126313 0.559349,0.209756 0.839024,0.314634 0.279674,0.104878 0.559349,0.209756 0.839023,0.314634"
       id="path4693"
       inkscape:connector-curvature="0" />
    <path
       style="fill:none;stroke:#000000;stroke-width:1px;stroke-linecap:butt;stroke-linejoin:miter;stroke-opacity:1"
       d="m 39.958498,38.829293 c 0.390197,0 0.546994,0.02742 0.943901,-0.104878 0.25258,-0.08419 0.481566,-0.230441 0.734146,-0.314634 0.16911,-0.05637 0.349593,-0.06992 0.52439,-0.104878 0.601535,-0.120307 1.200117,-0.225243 1.782925,-0.419512 0.104878,-0.03496 0.215754,-0.05544 0.314633,-0.104878 0.112741,-0.05637 0.206549,-0.144905 0.314634,-0.209756 0.06703,-0.04022 0.147219,-0.05797 0.209756,-0.104878 0.0791,-0.05933 0.139837,-0.139837 0.209756,-0.209755 0.139837,-0.139838 0.279675,-0.279675 0.419512,-0.419512 0,-0.139837 -0.02742,-0.28239 0,-0.419512 0.0097,-0.04848 0.08277,-0.06066 0.104878,-0.104878 0.01563,-0.03127 -0.02472,-0.08016 0,-0.104878 0.02472,-0.02472 0.08016,0.02472 0.104878,0 0.05244,-0.05244 -0.05244,-0.262195 0,-0.314634 0.02472,-0.02472 0.06992,0 0.104878,0 0,-0.06992 -0.01696,-0.141925 0,-0.209756 0.126612,-0.506449 0.04984,0.0052 0.209756,-0.314633 0.01563,-0.03127 -0.03496,-0.104878 0,-0.104878 0.03496,0 0,0.06992 0,0.104878"
       id="path4695"
       inkscape:connector-curvature="0" />
    <path
       style="fill:none;stroke:#000000;stroke-width:1px;stroke-linecap:butt;stroke-linejoin:miter;stroke-opacity:1"
       d="m 40.168254,2.8561571 c 0.279674,0 0.559349,0 0.839023,0 0.06992,0 0.139837,0 0.209756,0 0.03496,0 0.07361,-0.015634 0.104878,0 0.04422,0.02211 0.06066,0.082768 0.104878,0.1048779 0.06813,0.034066 0.457864,-0.033263 0.52439,0 0.04422,0.02211 0.06066,0.082768 0.104878,0.104878 0.03127,0.015634 0.08016,-0.02472 0.104878,0 0.02472,0.02472 -0.03127,0.089244 0,0.1048779 0.06592,0.032959 0.353593,-0.032959 0.419511,0 0.04422,0.02211 0.05797,0.089244 0.104878,0.104878 0.1432,0.047733 0.486068,-0.047733 0.629268,0 0.0469,0.015634 0.06066,0.082768 0.104878,0.1048779 0.264187,0.1320935 -0.09076,-0.3983366 0.314634,0.2097559 0.07991,0.1198605 -0.137726,0.1288881 0.104878,0.2097559 0.06633,0.02211 0.147218,-0.031268 0.209756,0 0.209755,0.104878 0.157317,0.2097559 0.314633,0.3146339 0.490152,0.3267675 -0.125622,-0.2053759 0.52439,0.3146338 0.461567,0.3692533 0.01016,0.03892 0.314634,0.4195118 0.09266,0.1158183 0.209756,0.2097559 0.314634,0.3146338 0.06992,0.1398373 0.118883,0.2922904 0.209756,0.4195118 0.08621,0.1206928 0.209756,0.2097559 0.314634,0.3146339 0.06992,0.069919 0.133794,0.1464545 0.209755,0.2097558 0.134283,0.1119021 0.286797,0.2008778 0.419512,0.3146339 0.112613,0.096525 0.200692,0.2196818 0.314634,0.3146338 0.387941,0.3232842 0.196768,0.1098702 0.52439,0.3146339 0.213776,0.1336102 0.410388,0.2944375 0.629268,0.4195117 0.03035,0.017345 0.06992,0 0.104877,0 0.06992,0 0.147219,-0.031268 0.209756,0 0.08844,0.044221 0.130652,0.150428 0.209756,0.2097559 0.125075,0.093806 0.294438,0.1159502 0.419512,0.2097559 0.0791,0.059328 0.127483,0.1549072 0.209756,0.2097559 0.02909,0.019392 0.07171,-0.011055 0.104878,0 0.14832,0.04944 0.267837,0.1718372 0.419512,0.2097559 0.06783,0.016958 0.141925,-0.016958 0.209756,0 0.207386,0.051847 0.606348,0.3539935 0.734145,0.5243898 0.09259,0.1234543 0.167454,0.3974821 0.209756,0.5243897 0.150661,0.4519833 0.246889,0.8891992 0.314634,1.3634132 0.01271,0.08897 -0.02338,0.477624 0,0.52439 0.02211,0.04422 0.08924,0.05798 0.104878,0.104878 0.02211,0.06633 -0.01696,0.141925 0,0.209756 0.01896,0.07584 0.07585,0.137175 0.104878,0.209756 0.04106,0.102644 0.06382,0.211989 0.104878,0.314633 0.22726,0.56815 -0.04926,-0.186986 0.314634,0.419512 0.05688,0.0948 0.06382,0.21199 0.104878,0.314634 0.02903,0.07258 0.07585,0.137176 0.104877,0.209756 0.422292,1.05573 -0.08189,-0.222676 0.104878,0.52439 0.01896,0.07584 0.08592,0.133918 0.104878,0.209756 0.01696,0.06783 -0.01696,0.141924 0,0.209755 0.01896,0.07584 0.07585,0.137176 0.104878,0.209756 0.04106,0.102644 0.05544,0.215754 0.104878,0.314634 0.05637,0.112741 0.160104,0.198778 0.209756,0.314634 0.05678,0.132486 0.0593,0.282768 0.104878,0.419512 0.03086,0.09259 0.259307,0.546277 0.314634,0.629267 0.02742,0.04114 0.07745,0.06374 0.104878,0.104878 0.04336,0.06504 0.06992,0.139838 0.104878,0.209756 0.03496,0.06992 0.08592,0.133919 0.104878,0.209756 0.01696,0.06783 -0.02597,0.144838 0,0.209756 0.04681,0.117032 0.144905,0.206549 0.209756,0.314634 0.04022,0.06703 0.06466,0.142724 0.104878,0.209756 0.06485,0.108085 0.153385,0.201893 0.209756,0.314634 0.04944,0.09888 0.06382,0.211989 0.104877,0.314634 0.156977,0.392442 0.0684,0.03193 0.314634,0.524389 0.215579,0.431157 0.03132,0.18793 0.104878,0.629268 0.15344,0.920637 0.03858,-0.160316 0.209756,0.52439 0.01696,0.06783 -0.01696,0.141925 0,0.209756 0.01896,0.07584 0.08592,0.133918 0.104878,0.209755 0.01696,0.06783 -0.01696,0.141925 0,0.209756 0.03792,0.151675 0.151692,0.274351 0.209756,0.419512 0.422292,1.05573 -0.08189,-0.222676 0.104878,0.52439 0.171176,0.684706 0.05632,-0.396247 0.209756,0.52439 0.02874,0.172418 -0.0424,0.354812 0,0.524389 0.01896,0.07584 0.08592,0.133919 0.104878,0.209756 0.04113,0.164515 -0.04113,0.359876 0,0.52439 0.01896,0.07584 0.08016,0.135596 0.104878,0.209756 0.02133,0.06398 0,0.548267 0,0.629268 0,0.48943 0,0.97886 0,1.468291 0,0.384552 0,0.769105 0,1.153657 0,0.104878 0,0.209756 0,0.314634 0,0.06992 -0.01696,0.141925 0,0.209756 0.01896,0.07584 0.08016,0.135596 0.104878,0.209756 0.01105,0.03317 0,0.06992 0,0.104878 0,0.06992 0,0.139837 0,0.209756 0,0.06992 -0.01696,0.141925 0,0.209756 0.01896,0.07584 0.08592,0.133918 0.104878,0.209755 0.02544,0.101747 -0.03317,0.215138 0,0.314634 0.02472,0.07416 0.08955,0.133103 0.104878,0.209756 0.02057,0.102841 -0.01483,0.21081 0,0.314634 0.02038,0.142692 0.06992,0.279675 0.104878,0.419512 0.03496,0.349593 0.07307,0.698885 0.104877,1.048779 0.01583,0.174079 0,0.349593 0,0.52439 0,0.209756 0,0.419512 0,0.629268 0,0.769105 0,1.53821 0,2.307315 0,0.873982 0,1.747965 0,2.621948 0,0.384553 0,0.769105 0,1.153658 0,0.104878 0.01483,0.21081 0,0.314633 -0.02038,0.142693 -0.08896,0.276253 -0.104877,0.419512 -0.0193,0.173728 0.0193,0.350662 0,0.52439 -0.02981,0.268254 -0.137439,0.481035 -0.209756,0.734146 -0.0396,0.138595 -0.0593,0.282767 -0.104878,0.419511 -0.02472,0.07416 -0.08016,0.135596 -0.104878,0.209756 -0.09116,0.273488 -0.108534,0.569097 -0.209756,0.839024 -0.225115,0.600306 -0.184415,0.213269 -0.314634,0.734145 -0.04323,0.172936 -0.03466,0.360545 -0.104878,0.52439 -0.03895,0.09089 -0.173033,0.117948 -0.209756,0.209756 -0.03895,0.09738 0.01724,0.211183 0,0.314634 -0.01817,0.109047 -0.06382,0.21199 -0.104878,0.314634 -0.05806,0.14516 -0.139837,0.279674 -0.209756,0.419512 -0.06992,0.139837 -0.123032,0.289426 -0.209756,0.419511 -0.02742,0.04114 -0.07745,0.06374 -0.104878,0.104878 -0.04336,0.06504 -0.06152,0.144714 -0.104877,0.209756 -0.02743,0.04114 -0.08277,0.06066 -0.104878,0.104878 -0.01564,0.03127 0.01105,0.07171 0,0.104878 -0.02472,0.07416 -0.08016,0.135596 -0.104878,0.209756 -0.01106,0.03316 0.03127,0.08924 0,0.104878 -0.06254,0.03127 -0.160316,-0.04944 -0.209756,0 -0.04944,0.04944 0.02211,0.143425 0,0.209756 -0.01563,0.0469 -0.08924,0.05797 -0.104878,0.104878 -0.016,0.04801 0,0.465851 0,0.524389 0,0.209756 0,0.419512 0,0.629268 0,0.06992 0.01149,0.140789 0,0.209756 -0.0237,0.14218 -0.06992,0.279675 -0.104878,0.419512"
       id="path4697"
       inkscape:connector-curvature="0" />
    <path
       style="fill:none;stroke:#000000;stroke-width:1px;stroke-linecap:butt;stroke-linejoin:miter;stroke-opacity:1"
       d="m 51.704828,28.551254 4.404873,5.243897"
       id="path4699"
       inkscape:connector-curvature="0" />
    <path
       style="fill:none;stroke:#000000;stroke-width:1px;stroke-linecap:butt;stroke-linejoin:miter;stroke-opacity:1"
       d="m 50.865804,29.180522 c 0.295041,0.156411 0.639064,0.183989 0.943902,0.314634 0.287403,0.123172 0.559349,0.279674 0.839023,0.419511 0.139837,0.06992 0.289427,0.123033 0.419512,0.209756 0.349593,0.233062 0.0874,0.262195 0.52439,0.52439 0.05995,0.03597 0.15158,-0.03878 0.209756,0 0.06504,0.04336 0.05797,0.147219 0.104878,0.209756 0.05933,0.0791 0.150428,0.130652 0.209755,0.209756 0.105411,0.140547 0.149324,0.373309 0.209756,0.524389 0.02903,0.07258 0.07585,0.137176 0.104878,0.209756 0.04106,0.102644 0.06382,0.21199 0.104878,0.314634 0.02903,0.07258 0.08592,0.133919 0.104878,0.209756 0.01696,0.06783 0,0.139837 0,0.209756 0,0.03496 -0.01939,0.07579 0,0.104878 0.05485,0.08227 0.154907,0.127483 0.209756,0.209756 0.01939,0.02909 0,0.06992 0,0.104878 0,0.06992 0,0.139837 0,0.209756 0,0.06499 -0.01641,0.596453 0,0.629267 0.01563,0.03127 0.08924,-0.03127 0.104878,0 0.259196,0.518392 -0.232719,-0.02296 0.104878,0.314634"
       id="path4701"
       inkscape:connector-curvature="0" />
  </g>
  <g
     inkscape:groupmode="layer"
     id="layer3"
     inkscape:label="Layer">
    <rect
       style="fill:#ffffff;fill-opacity:1;stroke:#000000;stroke-width:1;stroke-linejoin:miter;stroke-miterlimit:4;stroke-opacity:1;stroke-dasharray:none"
       id="rect4736"
       width="9.334137"
       height="6.2926769"
       x="28.421923"
       y="35.892712"
       rx="3.5697217"
       ry="2.0453708" />
    <path
       style="fill:none;stroke:#000000;stroke-width:1px;stroke-linecap:butt;stroke-linejoin:miter;stroke-opacity:1"
       d="m 6.2926768,36.521978 c 0,0 0,10.382917 8.2853582,14.682913 8.285357,4.299995 18.773152,-4.195118 18.773152,-9.439016 0.314634,5.873165 9.753649,8.914626 9.753649,8.914626 0,0 8.18048,1.258535 10.697551,-5.978043 C 55.861894,38.781375 58.658068,17.403833 50.236537,8.8342 39.15428,-2.4429498 23.67123,1.316935 15.521936,9.9878575 9.1086945,16.811605 6.2926768,36.521978 6.2926768,36.521978 z"
       id="path4708"
       inkscape:connector-curvature="0"
       sodipodi:nodetypes="csccsssc" />
    <path
       style="fill:none;stroke:#000000;stroke-width:1px;stroke-linecap:butt;stroke-linejoin:miter;stroke-opacity:1"
       d="M 17.199984,8.8342001 C 11.012185,8.5195662 2.5170707,17.53907 2.4121928,22.153699 c -0.104878,4.61463 5.3487753,4.509752 5.3487753,4.509752"
       id="path4712"
       inkscape:connector-curvature="0"
       sodipodi:nodetypes="csc" />
    <path
       style="fill:none;stroke:#000000;stroke-width:1px;stroke-linecap:butt;stroke-linejoin:miter;stroke-opacity:1"
       d="m 49.292634,7.7854206 c 9.439016,0 13.424378,9.9634054 13.529256,13.6341334 0.104878,3.670728 -6.607311,4.824385 -6.607311,4.824385"
       id="path4714"
       inkscape:connector-curvature="0"
       sodipodi:nodetypes="csc" />
    <path
       style="fill:none;stroke:#000000;stroke-width:1px;stroke-linecap:butt;stroke-linejoin:miter;stroke-opacity:1"
       d="M 6.7121886,40.402462 C 13.948767,21.000041 22.96827,21.62931 22.96827,21.62931"
       id="path4716"
       inkscape:connector-curvature="0"
       sodipodi:nodetypes="cc" />
    <path
       style="fill:none;stroke:#000000;stroke-width:1px;stroke-linecap:butt;stroke-linejoin:miter;stroke-opacity:1"
       d="M 55.795068,34.319541 C 48.873123,22.363455 39.119474,21.419554 39.119474,21.419554"
       id="path4718"
       inkscape:connector-curvature="0"
       sodipodi:nodetypes="cc" />
    <path
       style="fill:none;stroke:#000000;stroke-width:1px;stroke-linecap:butt;stroke-linejoin:miter;stroke-opacity:1"
       d="m 20.4512,13.343952 c 2.097559,0.209756 2.412192,-2.307315 5.139019,-1.887803 2.726827,0.419512 3.460972,1.992681 6.187799,1.048779 2.726826,-0.943901 4.929263,-2.7268264 5.978043,-2.7268264 1.048779,0 5.873165,1.3634134 5.873165,1.3634134"
       id="path4720"
       inkscape:connector-curvature="0" />
    <path
       style="fill:none;stroke:#000000;stroke-width:1px;stroke-linecap:butt;stroke-linejoin:miter;stroke-opacity:1"
       d="M 13.843889,50.260989 C 13.424377,31.697592 24.121928,30.439057 24.121928,30.439057 c 0,0 16.256081,-2.517071 21.185345,2.202437 4.929263,4.719508 3.251216,17.619495 3.251216,17.619495"
       id="path4722"
       inkscape:connector-curvature="0" />
    <path
       style="fill:none;stroke:#000000;stroke-width:1px;stroke-linecap:butt;stroke-linejoin:miter;stroke-opacity:1"
       d="m 19.087786,33.165884 c 1.573169,7.446334 5.558531,6.921944 5.558531,6.921944"
       id="path4724"
       inkscape:connector-curvature="0" />
    <path
       style="fill:none;stroke:#000000;stroke-width:1px;stroke-linecap:butt;stroke-linejoin:miter;stroke-opacity:1"
       d="m 45.936541,33.061006 c -0.419512,5.348775 -5.558532,5.873165 -5.558532,5.873165"
       id="path4726"
       inkscape:connector-curvature="0" />
    <path
       style="fill:none;stroke:#000000;stroke-width:1px;stroke-linecap:butt;stroke-linejoin:miter;stroke-opacity:1"
       d="m 28.736557,40.297584 c 3.216521,0.348538 2.719986,-1.86044 2.726827,-1.887803"
       id="path4728"
       inkscape:connector-curvature="0"
       sodipodi:nodetypes="cc" />
    <path
       style="fill:none;stroke:#000000;stroke-width:1px;stroke-linecap:butt;stroke-linejoin:miter;stroke-opacity:1"
       d="M 37.336549,40.297584 C 34.190211,40.926852 34.7146,38.409781 34.7146,38.409781"
       id="path4730"
       inkscape:connector-curvature="0"
       sodipodi:nodetypes="cc" />
    <path
       sodipodi:type="arc"
       style="fill:#ffffff;fill-opacity:1;stroke:#000000;stroke-width:1;stroke-linejoin:miter;stroke-miterlimit:4;stroke-opacity:1;stroke-dasharray:none"
       id="path4732"
       sodipodi:cx="23.125587"
       sodipodi:cy="19.53175"
       sodipodi:rx="2.2548759"
       sodipodi:ry="2.097559"
       d="m 25.380463,19.53175 a 2.2548759,2.097559 0 1 1 -4.509751,0 2.2548759,2.097559 0 1 1 4.509751,0 z" />
    <path
       sodipodi:type="arc"
       style="fill:#ffffff;fill-opacity:1;stroke:#000000;stroke-width:1;stroke-linejoin:miter;stroke-miterlimit:4;stroke-opacity:1;stroke-dasharray:none"
       id="path4734"
       sodipodi:cx="39.853619"
       sodipodi:cy="19.426872"
       sodipodi:rx="2.097559"
       sodipodi:ry="2.2024369"
       d="m 41.951178,19.426872 a 2.097559,2.2024369 0 1 1 -4.195118,0 2.097559,2.2024369 0 1 1 4.195118,0 z" />
    <path
       style="fill:#666666;fill-opacity:1;stroke:#000000;stroke-width:0.10487795;stroke-linejoin:miter;stroke-miterlimit:4;stroke-opacity:1;stroke-dasharray:none"
       d="M 12.603957,49.2073 C 10.46336,47.417735 8.8468009,44.98637 7.8948438,42.124619 7.3042089,40.349067 7.3025079,40.410468 7.9888589,38.730989 10.206306,33.304967 12.831912,28.979811 15.571335,26.240386 c 2.569016,-2.569015 4.773006,-3.794727 7.244492,-4.028902 1.240509,-0.11754 1.791744,-0.317407 2.312978,-0.83864 1.101517,-1.101518 1.010981,-2.916486 -0.191726,-3.843508 -0.466908,-0.359883 -1.303232,-0.658176 -1.845327,-0.658176 -0.950882,0 -2.053642,0.662685 -2.47404,1.486733 -0.430635,0.844115 -0.333889,2.033911 0.222947,2.741813 l 0.200623,0.255051 -0.652811,0.234793 C 16.635845,22.939231 12.832744,26.812704 9.697698,32.478142 8.9662976,33.799877 7.6154461,36.613245 7.2556436,37.564117 7.1244205,37.910908 7.0378782,38.025382 6.9781367,37.93119 6.6172327,37.362163 7.3705339,32.810271 8.7624688,27.149199 10.377626,20.580269 12.294011,15.595057 14.477037,12.28353 c 0.800152,-1.213784 2.293708,-2.8587042 2.59565,-2.8587042 0.12498,0 0.198339,-0.073744 0.198339,-0.1993806 0,-0.3747889 2.675499,-2.3904048 4.709594,-3.548022 3.61076,-2.0549091 7.369946,-3.1275047 11.389171,-3.2496331 3.702689,-0.1125101 6.954777,0.588231 10.145359,2.1860624 3.280047,1.6426356 6.31675,4.19473 7.970785,6.6987765 1.974285,2.988873 3.284085,7.542977 3.755394,13.057304 0.119186,1.394479 0.151315,7.646164 0.04022,7.82592 -0.03384,0.05475 -0.430699,-0.409418 -0.881914,-1.031483 -2.259265,-3.114724 -4.790801,-5.51987 -7.815223,-7.425041 -1.12635,-0.70952 -2.943695,-1.602539 -4.053546,-1.991857 l -0.80233,-0.281445 0.302601,-0.488289 c 0.990631,-1.598519 0.274599,-3.66951 -1.441162,-4.168296 -0.986152,-0.286681 -1.800851,-0.07447 -2.580009,0.672047 -1.222074,1.17087 -0.996224,3.324257 0.448956,4.280632 0.284176,0.188059 0.681759,0.309407 1.331982,0.40654 2.541185,0.379614 5.897968,2.042849 8.691389,4.306452 2.082235,1.687303 4.763483,4.760474 6.158495,7.058692 l 0.505162,0.832234 -0.171077,1.50438 c -0.554981,4.880273 -1.447482,8.560211 -2.499798,10.307104 -0.687077,1.140582 -1.885717,2.313224 -2.901641,2.83871 l -0.262195,0.13562 -0.0034,-3.633651 c -0.003,-3.249851 -0.02852,-3.794278 -0.241327,-5.154382 -0.492726,-3.149106 -1.114179,-4.990997 -2.287439,-6.779616 -1.390628,-2.119991 -3.557863,-3.271878 -7.360264,-3.911986 -3.600858,-0.606178 -9.801386,-0.542106 -14.783379,0.152762 -2.457709,0.342792 -4.334953,1.320851 -6.247409,3.25495 -3.265018,3.301968 -4.946421,8.452656 -5.131039,15.718055 l -0.02377,0.935392 -0.629268,-0.526077 z m 9.212544,-35.570104 c 0.239925,-0.106651 0.744674,-0.430888 1.121663,-0.720525 1.058244,-0.813042 1.306977,-0.918774 2.146269,-0.912342 0.551964,0.0042 0.961872,0.08827 1.651828,0.33867 2.878532,1.044671 2.661609,0.989519 3.689716,0.938093 1.360886,-0.06807 2.285541,-0.425641 5.513324,-2.132035 1.511195,-0.798906 1.524675,-0.803575 2.149998,-0.744714 0.643197,0.06054 2.506898,0.485628 4.195117,0.956849 1.2693,0.354291 1.263638,0.35517 1.408124,-0.218637 0.06713,-0.26659 0.108127,-0.498196 0.09111,-0.514681 -0.143248,-0.138759 -4.809578,-1.2654462 -5.641913,-1.3622419 -0.764512,-0.088908 -1.226662,0.075697 -3.260044,1.1611369 -1.844897,0.984824 -3.120048,1.536467 -3.997547,1.729379 -0.75936,0.166939 -1.388288,0.04967 -2.811923,-0.524307 -1.42174,-0.573213 -2.363871,-0.774822 -3.346408,-0.716107 -0.916058,0.05474 -1.405665,0.266807 -2.368208,1.025749 -0.784962,0.618921 -1.210633,0.839437 -1.6204,0.839437 -0.318705,0 -0.319843,0.0021 -0.319843,0.591084 l 0,0.591085 0.481455,-0.06599 c 0.2648,-0.03629 0.677757,-0.15325 0.917682,-0.259901 z"
       id="path4738"
       inkscape:connector-curvature="0" />
    <path
       style="fill:#666666;fill-opacity:1;stroke:#000000;stroke-width:0.10487795000000000;stroke-linejoin:miter;stroke-miterlimit:4;stroke-opacity:1;stroke-dasharray:none"
       d="m 17.375904,51.58979 c -0.490304,-0.105032 -1.151035,-0.292345 -1.468291,-0.416251 -0.725416,-0.283315 -1.773732,-0.834786 -1.599389,-0.841366 0.09958,-0.0038 0.131368,-0.439958 0.13222,-1.814093 0.0034,-5.490552 1.276531,-10.174082 3.624067,-13.332122 l 0.691545,-0.930305 0.361024,1.076069 c 1.074207,3.201776 2.781133,4.975132 5.10211,5.300675 l 0.49817,0.06987 0,-0.574129 0,-0.574128 -0.517217,-0.06126 c -0.549086,-0.06503 -1.203054,-0.355138 -1.764973,-0.782961 -0.887712,-0.675867 -1.9154,-2.493622 -2.442717,-4.320632 -0.341765,-1.184119 -0.383221,-1.094903 0.907978,-1.954036 1.507381,-1.002977 2.343343,-1.313075 4.199898,-1.557942 6.872473,-0.906433 13.439054,-0.663275 17.060576,0.631746 1.557265,0.556863 3.021942,1.517791 3.095628,2.030944 0.09892,0.688887 -0.570844,2.135707 -1.406498,3.038313 -0.667244,0.720704 -1.997999,1.465413 -3.032184,1.696854 l -0.590886,0.132234 0.0694,0.427662 c 0.03817,0.235215 0.111987,0.472749 0.16404,0.527854 0.162808,0.172356 1.240361,-0.122539 2.278547,-0.623573 1.503144,-0.725424 2.615112,-1.888848 3.214247,-3.362988 0.272171,-0.669661 0.297651,-0.655453 0.769854,0.429264 0.629153,1.445254 1.07527,3.285986 1.333597,5.502591 0.176882,1.517746 0.235975,5.406232 0.109418,7.199958 l -0.08254,1.169841 -0.654178,0.164324 c -0.798273,0.20052 -2.290611,0.378115 -3.187075,0.379277 -0.83935,0.0011 -1.831786,-0.330983 -3.598858,-1.204184 -3.411253,-1.685675 -5.576655,-3.644386 -6.401741,-5.790685 L 34.0722,42.78576 34.560019,42.72502 c 1.559486,-0.194159 2.276499,-0.452026 2.950816,-1.06123 0.738839,-0.667497 0.788219,-0.831069 0.788219,-2.610949 0,-1.428791 -0.02157,-1.613519 -0.235007,-2.012825 -0.251608,-0.470714 -0.664595,-0.82794 -1.338162,-1.157487 -0.884612,-0.432803 -1.38058,-0.500416 -3.670728,-0.500416 -2.044637,0 -2.257787,0.01813 -2.974973,0.25304 -0.860357,0.281806 -1.686996,0.866576 -1.978087,1.399311 -0.156098,0.28568 -0.185959,0.609789 -0.185959,2.018377 0,1.568958 0.01569,1.703283 0.241376,2.066238 0.540166,0.868715 1.642817,1.387819 3.342035,1.573357 l 1.09248,0.119287 -0.06987,0.322996 c -0.191727,0.886386 -1.146258,2.381303 -2.311217,3.619661 -2.337882,2.485183 -5.411523,4.222081 -8.564984,4.840025 -1.314946,0.257672 -3.054425,0.255791 -4.270058,-0.0046 z"
       id="path4740"
       inkscape:connector-curvature="0" />
    <path
       style="fill:#333333;fill-opacity:1;stroke:#000000;stroke-width:0.10487795000000000;stroke-linejoin:miter;stroke-miterlimit:4;stroke-opacity:1;stroke-dasharray:none"
       d="m 30.719541,41.459753 c -0.30398,-0.08184 -0.705138,-0.229034 -0.891463,-0.327099 l -0.338771,-0.178302 0.576829,-0.119726 c 0.317255,-0.06585 0.724591,-0.197024 0.905189,-0.291499 0.642055,-0.335874 1.085326,-1.104047 1.086907,-1.883574 5.67e-4,-0.279745 -0.01675,-0.288414 -0.576244,-0.288414 -0.573751,0 -0.576829,0.0017 -0.576829,0.321529 0,0.679273 -0.472701,1.041884 -1.358205,1.041884 l -0.529598,0 0,-1.062615 0,-1.062615 0.357245,-0.336925 c 0.221081,-0.208507 0.63646,-0.426705 1.089807,-0.572476 0.681027,-0.218979 0.882772,-0.232866 2.867752,-0.197402 1.969997,0.0352 2.177848,0.05724 2.686562,0.284921 0.303255,0.135725 0.692615,0.407638 0.865244,0.604251 0.300749,0.342535 0.31387,0.398509 0.31387,1.338949 0,0.798224 -0.03097,0.993356 -0.165895,1.045131 -0.300587,0.115346 -0.992882,0.0664 -1.298869,-0.09183 -0.332745,-0.172069 -0.585406,-0.756689 -0.476001,-1.101395 0.06179,-0.194672 0.02089,-0.211403 -0.516799,-0.211403 l -0.583896,0 0,0.502167 c 0,0.914374 0.662924,1.807946 1.462061,1.970748 0.147633,0.03008 0.41001,0.09042 0.583058,0.134092 0.307522,0.07761 0.309494,0.08222 0.08724,0.20359 -0.125067,0.0683 -0.500744,0.19538 -0.834838,0.2824 -0.811842,0.211458 -3.943411,0.208559 -4.734355,-0.0044 l 0,0 z"
       id="path4742"
       inkscape:connector-curvature="0" />
    <path
       style="fill:#333333;fill-opacity:1;stroke:#000000;stroke-width:0.10487795;stroke-linejoin:miter;stroke-miterlimit:4;stroke-opacity:1;stroke-dasharray:none"
       d="M 56.302078,23.976641 C 55.785392,17.628933 54.165967,12.748418 51.459739,9.3831226 l -0.750413,-0.9331658 0.603968,0.070985 c 0.706845,0.083076 2.240457,0.5907456 3.136964,1.0384255 1.593736,0.7958477 3.55622,2.4920967 4.667069,4.0339237 1.720626,2.388181 2.922,5.301168 3.112236,7.546275 0.05757,0.679423 0.03571,0.81277 -0.21844,1.332223 -0.358215,0.732165 -1.078536,1.381748 -2.150849,1.939627 -0.816017,0.424538 -2.878207,1.164614 -3.24515,1.164614 -0.16021,0 -0.198986,-0.19811 -0.313046,-1.599389 z"
       id="path4744"
       inkscape:connector-curvature="0" />
    <path
       style="fill:#333333;fill-opacity:1;stroke:#000000;stroke-width:0.10487795;stroke-linejoin:miter;stroke-miterlimit:4;stroke-opacity:1;stroke-dasharray:none"
       d="M 6.1996174,25.894561 C 4.7286507,25.508801 3.8999751,24.949369 3.3774679,23.989351 2.9480403,23.200351 2.8854926,22.032098 3.2143906,20.943424 4.3237071,17.271516 8.8210568,12.43243 12.964821,10.452095 c 0.745883,-0.356462 1.917052,-0.8175133 2.076661,-0.8175133 0.02471,0 -0.147292,0.21838 -0.382235,0.4852893 -2.125413,2.414597 -4.493607,7.687011 -6.2069007,13.818696 -0.2919374,1.044812 -0.5494607,1.958651 -0.5722738,2.030755 -0.059469,0.187959 -0.8051601,0.154785 -1.6804551,-0.07476 z"
       id="path4746"
       inkscape:connector-curvature="0" />
    <path
       style="fill:#000000;fill-opacity:1;stroke:#000000;stroke-width:0.10487795;stroke-linejoin:miter;stroke-miterlimit:4;stroke-opacity:1;stroke-dasharray:none"
       d="m 22.333951,20.852725 c -1.137278,-0.578284 -1.154122,-2.036579 -0.03042,-2.633714 1.412173,-0.75043 3.131182,0.762679 2.282732,2.00931 -0.543483,0.798542 -1.42774,1.043683 -2.252312,0.624404 z"
       id="path4752"
       inkscape:connector-curvature="0" />
    <path
       style="fill:#000000;fill-opacity:1;stroke:#000000;stroke-width:0.10487795;stroke-linejoin:miter;stroke-miterlimit:4;stroke-opacity:1;stroke-dasharray:none"
       d="m 39.232076,20.916368 c -0.768105,-0.334363 -1.137133,-1.609845 -0.677568,-2.3419 0.661381,-1.053535 2.132608,-0.993175 2.632484,0.108003 0.258301,0.569011 0.257322,0.95295 -0.0038,1.492364 -0.361793,0.747366 -1.203149,1.067129 -1.951112,0.741533 z"
       id="path4754"
       inkscape:connector-curvature="0" />
  </g>
</svg>
